%FSLAX23Y23*%
%MOIN*%
G70*
G01*
G75*
G04 Layer_Color=16711935*
%ADD10R,0.118X0.039*%
%ADD11R,0.118X0.059*%
%ADD12R,0.025X0.020*%
%ADD13R,0.079X0.079*%
%ADD14R,0.079X0.051*%
%ADD15O,0.055X0.024*%
%ADD16R,0.055X0.024*%
%ADD17R,0.031X0.035*%
%ADD18R,0.035X0.031*%
%ADD19R,0.043X0.102*%
%ADD20C,0.010*%
%ADD21R,0.105X0.150*%
%ADD22C,0.050*%
%ADD23C,0.039*%
%ADD24C,0.236*%
%ADD25R,0.105X0.155*%
%ADD26C,0.008*%
%ADD27C,0.000*%
%ADD28C,0.004*%
%ADD29C,0.020*%
%ADD30C,0.059*%
%ADD31R,0.126X0.047*%
%ADD32R,0.126X0.067*%
%ADD33R,0.033X0.028*%
%ADD34R,0.087X0.087*%
%ADD35R,0.087X0.059*%
%ADD36O,0.063X0.032*%
%ADD37R,0.063X0.032*%
%ADD38R,0.039X0.043*%
%ADD39R,0.043X0.039*%
%ADD40R,0.051X0.110*%
%ADD41C,0.058*%
D23*
X782Y218D02*
D03*
X908D02*
D03*
X845Y244D02*
D03*
X756Y155D02*
D03*
X782Y92D02*
D03*
X845Y66D02*
D03*
X908Y92D02*
D03*
X934Y155D02*
D03*
Y800D02*
D03*
X908Y737D02*
D03*
X845Y711D02*
D03*
X782Y737D02*
D03*
X756Y800D02*
D03*
X845Y889D02*
D03*
X908Y863D02*
D03*
X782D02*
D03*
D24*
X845Y155D02*
D03*
Y800D02*
D03*
D30*
X934Y155D02*
G03*
X934Y155I-89J0D01*
G01*
Y800D02*
G03*
X934Y800I-89J0D01*
G01*
D41*
X405Y325D02*
D03*
X1025Y300D02*
D03*
X245Y310D02*
D03*
X390Y795D02*
D03*
X445Y610D02*
D03*
X825Y570D02*
D03*
X735Y400D02*
D03*
X420Y430D02*
D03*
M02*
