%FSLAX23Y23*%
%MOIN*%
G70*
G01*
G75*
%ADD10R,0.118X0.039*%
%ADD11R,0.118X0.059*%
%ADD12R,0.025X0.020*%
%ADD13R,0.079X0.079*%
%ADD14R,0.079X0.051*%
%ADD15O,0.055X0.024*%
%ADD16R,0.055X0.024*%
%ADD17R,0.031X0.035*%
%ADD18R,0.035X0.031*%
%ADD19R,0.043X0.102*%
%ADD20C,0.010*%
%ADD21R,0.105X0.150*%
%ADD22C,0.050*%
%ADD23C,0.039*%
%ADD24C,0.236*%
%ADD25R,0.105X0.155*%
%ADD26C,0.008*%
%ADD27C,0.000*%
%ADD28C,0.004*%
D20*
X1205Y730D02*
G03*
X1123Y730I-41J-24D01*
G01*
X1190Y715D02*
G03*
X1135Y715I-27J-16D01*
G01*
X338Y108D02*
G03*
X340Y50I-23J-30D01*
G01*
X336Y121D02*
X345Y106D01*
X331Y101D02*
X345Y106D01*
X1295Y275D02*
Y675D01*
X1045D02*
X1295D01*
X1040Y670D02*
X1045Y675D01*
X1040Y275D02*
Y670D01*
Y275D02*
X1295D01*
X305Y60D02*
Y91D01*
X315Y81D01*
X326Y91D01*
Y60D01*
X342Y81D02*
X352D01*
X357Y76D01*
Y60D01*
X342D01*
X336Y65D01*
X342Y70D01*
X357D01*
X368Y81D02*
X389Y60D01*
X378Y70D01*
X389Y81D01*
X368Y60D01*
D26*
X618Y640D02*
G03*
X643Y640I13J0D01*
G01*
X580Y440D02*
Y640D01*
Y440D02*
X680D01*
Y640D01*
X643D02*
X680D01*
X580D02*
X618D01*
X574Y288D02*
X606D01*
X574Y382D02*
X606D01*
X624Y673D02*
X656D01*
X624Y767D02*
X656D01*
D27*
X1111Y815D02*
Y824D01*
X1111Y815D02*
Y824D01*
X1112Y811D02*
Y828D01*
X1112Y811D02*
Y828D01*
X1112Y810D02*
Y829D01*
X1113Y808D02*
Y831D01*
X1113Y808D02*
Y831D01*
X1113Y806D02*
Y833D01*
X1113Y806D02*
Y834D01*
X1114Y804D02*
Y835D01*
X1114Y804D02*
Y836D01*
X1114Y803D02*
Y815D01*
Y824D02*
Y837D01*
X1115Y802D02*
Y814D01*
Y825D02*
Y837D01*
X1115Y801D02*
Y811D01*
Y827D02*
Y838D01*
X1115Y801D02*
Y811D01*
Y828D02*
Y838D01*
X1116Y800D02*
Y810D01*
Y829D02*
Y830D01*
Y830D02*
Y839D01*
X1116Y800D02*
Y809D01*
Y831D02*
Y840D01*
X1116Y799D02*
Y808D01*
Y831D02*
Y840D01*
X1117Y799D02*
Y807D01*
Y833D02*
Y841D01*
X1117Y798D02*
Y807D01*
Y833D02*
Y841D01*
X1117Y797D02*
Y805D01*
Y834D02*
Y842D01*
X1117Y797D02*
Y805D01*
Y834D02*
Y842D01*
X1118Y796D02*
Y804D01*
Y836D02*
Y843D01*
X1118Y796D02*
Y803D01*
Y836D02*
Y843D01*
X1118Y796D02*
Y802D01*
Y837D02*
Y844D01*
X1119Y795D02*
Y802D01*
Y838D02*
Y844D01*
X1119Y795D02*
Y801D01*
Y838D02*
Y845D01*
X1119Y794D02*
Y801D01*
Y839D02*
Y845D01*
X1120Y794D02*
Y800D01*
Y840D02*
Y845D01*
X1120Y793D02*
Y800D01*
Y840D02*
Y846D01*
X1120Y793D02*
Y800D01*
Y840D02*
Y847D01*
X1120Y793D02*
Y798D01*
Y841D02*
Y847D01*
X1121Y792D02*
Y798D01*
Y842D02*
Y847D01*
X1121Y792D02*
Y798D01*
Y812D02*
Y825D01*
Y842D02*
Y848D01*
X1121Y792D02*
Y797D01*
Y812D02*
Y825D01*
Y842D02*
Y848D01*
X1122Y791D02*
Y796D01*
Y810D02*
Y828D01*
Y843D02*
Y849D01*
X1122Y791D02*
Y796D01*
Y809D02*
Y828D01*
Y843D02*
Y849D01*
X1122Y791D02*
Y796D01*
Y808D02*
Y830D01*
Y843D02*
Y849D01*
X1122Y790D02*
Y795D01*
Y807D02*
Y830D01*
Y844D02*
Y849D01*
X1123Y790D02*
Y795D01*
Y807D02*
Y831D01*
Y845D02*
Y850D01*
X1123Y790D02*
Y795D01*
Y805D02*
Y832D01*
Y845D02*
Y850D01*
X1123Y789D02*
Y794D01*
Y805D02*
Y833D01*
Y845D02*
Y850D01*
X1124Y789D02*
Y794D01*
Y804D02*
Y818D01*
Y819D02*
Y834D01*
Y846D02*
Y850D01*
X1124Y789D02*
Y794D01*
Y803D02*
Y817D01*
Y820D02*
Y834D01*
Y846D02*
Y850D01*
X1124Y788D02*
Y793D01*
Y802D02*
Y812D01*
Y825D02*
Y835D01*
Y846D02*
Y851D01*
X1125Y788D02*
Y792D01*
Y802D02*
Y812D01*
Y825D02*
Y836D01*
Y846D02*
Y851D01*
X1125Y788D02*
Y792D01*
Y801D02*
Y810D01*
Y828D02*
Y837D01*
Y847D02*
Y851D01*
X1125Y787D02*
Y792D01*
Y801D02*
Y809D01*
Y828D02*
Y837D01*
Y847D02*
Y852D01*
X1125Y787D02*
Y791D01*
Y800D02*
Y808D01*
Y830D02*
Y838D01*
Y847D02*
Y852D01*
X1126Y787D02*
Y791D01*
Y800D02*
Y807D01*
Y830D02*
Y838D01*
Y847D02*
Y852D01*
X1126Y786D02*
Y791D01*
Y800D02*
Y807D01*
Y807D02*
Y807D01*
Y831D02*
Y839D01*
Y848D02*
Y852D01*
X1126Y786D02*
Y791D01*
Y799D02*
Y806D01*
Y832D02*
Y839D01*
Y848D02*
Y852D01*
X1127Y785D02*
Y790D01*
Y798D02*
Y806D01*
Y832D02*
Y840D01*
Y848D02*
Y852D01*
X1127Y785D02*
Y790D01*
Y798D02*
Y804D01*
Y833D02*
Y840D01*
Y849D02*
Y852D01*
X1127Y785D02*
Y790D01*
Y798D02*
Y804D01*
Y834D02*
Y841D01*
Y849D02*
Y853D01*
X1128Y785D02*
Y790D01*
Y797D02*
Y803D01*
Y835D02*
Y841D01*
Y849D02*
Y853D01*
X1128Y785D02*
Y789D01*
Y797D02*
Y803D01*
Y835D02*
Y842D01*
Y849D02*
Y853D01*
X1128Y784D02*
Y789D01*
Y796D02*
Y802D01*
Y836D02*
Y842D01*
Y849D02*
Y853D01*
X1128Y784D02*
Y789D01*
Y796D02*
Y802D01*
Y836D02*
Y842D01*
Y849D02*
Y853D01*
X1129Y784D02*
Y789D01*
Y796D02*
Y801D01*
Y837D02*
Y842D01*
Y850D02*
Y854D01*
X1129Y784D02*
Y788D01*
Y795D02*
Y801D01*
Y837D02*
Y843D01*
Y850D02*
Y854D01*
X1129Y783D02*
Y788D01*
Y795D02*
Y800D01*
Y837D02*
Y843D01*
Y850D02*
Y854D01*
X1130Y783D02*
Y787D01*
Y795D02*
Y800D01*
Y838D02*
Y843D01*
Y850D02*
Y854D01*
X1130Y783D02*
Y787D01*
Y794D02*
Y800D01*
Y838D02*
Y844D01*
Y850D02*
Y854D01*
X1130Y783D02*
Y787D01*
Y794D02*
Y799D01*
Y812D02*
Y813D01*
Y839D02*
Y844D01*
Y850D02*
Y854D01*
X1131Y782D02*
Y787D01*
Y794D02*
Y799D01*
Y812D02*
Y813D01*
Y839D02*
Y844D01*
Y851D02*
Y854D01*
X1131Y782D02*
Y787D01*
Y793D02*
Y799D01*
Y811D02*
Y813D01*
Y840D02*
Y844D01*
Y851D02*
Y854D01*
X1131Y782D02*
Y786D01*
Y793D02*
Y798D01*
Y811D02*
Y813D01*
Y840D02*
Y844D01*
Y851D02*
Y854D01*
X1132Y782D02*
Y786D01*
Y793D02*
Y798D01*
Y809D02*
Y813D01*
Y840D02*
Y845D01*
Y851D02*
Y854D01*
X1132Y781D02*
Y786D01*
Y792D02*
Y798D01*
Y809D02*
Y812D01*
Y840D02*
Y845D01*
Y851D02*
Y855D01*
X1132Y781D02*
Y786D01*
Y792D02*
Y797D01*
Y808D02*
Y812D01*
Y841D02*
Y845D01*
Y851D02*
Y855D01*
X1132Y781D02*
Y785D01*
Y792D02*
Y797D01*
Y808D02*
Y812D01*
Y841D02*
Y845D01*
Y851D02*
Y855D01*
X1133Y781D02*
Y785D01*
Y792D02*
Y797D01*
Y808D02*
Y811D01*
Y841D02*
Y845D01*
Y851D02*
Y855D01*
X1133Y781D02*
Y785D01*
Y791D02*
Y796D01*
Y807D02*
Y811D01*
Y841D02*
Y846D01*
Y851D02*
Y855D01*
X1133Y780D02*
Y785D01*
Y791D02*
Y796D01*
Y807D02*
Y811D01*
Y842D02*
Y846D01*
Y852D02*
Y855D01*
X1134Y780D02*
Y784D01*
Y791D02*
Y796D01*
Y806D02*
Y811D01*
Y842D02*
Y846D01*
Y852D02*
Y855D01*
X1134Y780D02*
Y784D01*
Y791D02*
Y795D01*
Y806D02*
Y811D01*
Y842D02*
Y846D01*
Y852D02*
Y855D01*
X1134Y780D02*
Y784D01*
Y790D02*
Y795D01*
Y805D02*
Y810D01*
Y842D02*
Y846D01*
Y852D02*
Y855D01*
X1135Y780D02*
Y784D01*
Y790D02*
Y794D01*
Y805D02*
Y810D01*
Y842D02*
Y846D01*
Y852D02*
Y855D01*
X1135Y779D02*
Y784D01*
Y790D02*
Y794D01*
Y804D02*
Y809D01*
Y843D02*
Y846D01*
Y852D02*
Y855D01*
X1135Y779D02*
Y784D01*
Y790D02*
Y794D01*
Y804D02*
Y809D01*
Y843D02*
Y846D01*
Y852D02*
Y855D01*
X1135Y779D02*
Y783D01*
Y790D02*
Y794D01*
Y804D02*
Y809D01*
Y843D02*
Y847D01*
Y852D02*
Y855D01*
X1136Y779D02*
Y783D01*
Y790D02*
Y794D01*
Y803D02*
Y809D01*
Y843D02*
Y847D01*
Y852D02*
Y855D01*
X1136Y779D02*
Y783D01*
Y789D02*
Y793D01*
Y803D02*
Y808D01*
Y843D02*
Y847D01*
Y852D02*
Y855D01*
X1136Y779D02*
Y783D01*
Y789D02*
Y793D01*
Y803D02*
Y808D01*
Y843D02*
Y847D01*
Y852D02*
Y855D01*
X1137Y778D02*
Y783D01*
Y789D02*
Y793D01*
Y803D02*
Y808D01*
Y843D02*
Y847D01*
Y852D02*
Y855D01*
X1137Y778D02*
Y782D01*
Y788D02*
Y793D01*
Y802D02*
Y807D01*
Y843D02*
Y847D01*
Y852D02*
Y855D01*
X1137Y778D02*
Y782D01*
Y788D02*
Y792D01*
Y802D02*
Y807D01*
Y843D02*
Y847D01*
Y852D02*
Y855D01*
X1138Y778D02*
Y782D01*
Y788D02*
Y792D01*
Y801D02*
Y807D01*
Y843D02*
Y847D01*
Y852D02*
Y855D01*
X1138Y778D02*
Y782D01*
Y788D02*
Y792D01*
Y801D02*
Y807D01*
Y844D02*
Y847D01*
Y852D02*
Y855D01*
X1138Y778D02*
Y782D01*
Y788D02*
Y792D01*
Y801D02*
Y806D01*
Y844D02*
Y847D01*
Y852D02*
Y855D01*
X1138Y777D02*
Y781D01*
Y787D02*
Y792D01*
Y801D02*
Y806D01*
Y844D02*
Y847D01*
Y852D02*
Y855D01*
X1139Y777D02*
Y781D01*
Y787D02*
Y791D01*
Y801D02*
Y805D01*
Y844D02*
Y847D01*
Y852D02*
Y855D01*
X1139Y777D02*
Y781D01*
Y787D02*
Y791D01*
Y800D02*
Y805D01*
Y844D02*
Y847D01*
Y852D02*
Y854D01*
X1139Y777D02*
Y781D01*
Y787D02*
Y791D01*
Y800D02*
Y804D01*
Y843D02*
Y847D01*
Y852D02*
Y854D01*
X1140Y777D02*
Y781D01*
Y787D02*
Y790D01*
Y800D02*
Y804D01*
Y843D02*
Y847D01*
Y852D02*
Y854D01*
X1140Y776D02*
Y781D01*
Y787D02*
Y790D01*
Y800D02*
Y804D01*
Y843D02*
Y847D01*
Y852D02*
Y854D01*
X1140Y776D02*
Y780D01*
Y787D02*
Y790D01*
Y799D02*
Y803D01*
Y843D02*
Y847D01*
Y852D02*
Y854D01*
X1140Y776D02*
Y780D01*
Y787D02*
Y790D01*
Y799D02*
Y803D01*
Y843D02*
Y847D01*
Y852D02*
Y854D01*
X1141Y776D02*
Y780D01*
Y787D02*
Y790D01*
Y799D02*
Y803D01*
Y843D02*
Y847D01*
Y852D02*
Y854D01*
X1141Y776D02*
Y780D01*
Y786D02*
Y790D01*
Y798D02*
Y803D01*
Y843D02*
Y847D01*
Y852D02*
Y854D01*
X1141Y776D02*
Y780D01*
Y786D02*
Y789D01*
Y798D02*
Y803D01*
Y843D02*
Y846D01*
Y851D02*
Y854D01*
X1142Y776D02*
Y780D01*
Y786D02*
Y789D01*
Y798D02*
Y803D01*
Y843D02*
Y846D01*
Y851D02*
Y854D01*
X1142Y776D02*
Y779D01*
Y786D02*
Y789D01*
Y798D02*
Y802D01*
Y842D02*
Y846D01*
Y851D02*
Y853D01*
X1142Y776D02*
Y779D01*
Y786D02*
Y789D01*
Y798D02*
Y802D01*
Y842D02*
Y846D01*
Y851D02*
Y853D01*
X1143Y776D02*
Y779D01*
Y786D02*
Y788D01*
Y797D02*
Y802D01*
Y842D02*
Y846D01*
Y851D02*
Y853D01*
X1143Y776D02*
Y779D01*
Y786D02*
Y788D01*
Y797D02*
Y801D01*
Y842D02*
Y846D01*
Y851D02*
Y853D01*
X1143Y776D02*
Y779D01*
Y786D02*
Y788D01*
Y797D02*
Y801D01*
Y842D02*
Y846D01*
Y851D02*
Y853D01*
X1143Y776D02*
Y779D01*
Y786D02*
Y788D01*
Y797D02*
Y801D01*
Y842D02*
Y846D01*
Y851D02*
Y853D01*
X1144Y776D02*
Y779D01*
Y785D02*
Y788D01*
Y797D02*
Y801D01*
Y842D02*
Y846D01*
Y851D02*
Y853D01*
X1144Y776D02*
Y779D01*
Y785D02*
Y787D01*
Y796D02*
Y801D01*
Y841D02*
Y846D01*
Y851D02*
Y852D01*
X1144Y776D02*
Y779D01*
Y785D02*
Y787D01*
Y796D02*
Y800D01*
Y841D02*
Y845D01*
Y851D02*
Y852D01*
X1145Y776D02*
Y779D01*
Y785D02*
Y787D01*
Y796D02*
Y800D01*
Y841D02*
Y845D01*
Y850D02*
Y852D01*
X1145Y776D02*
Y779D01*
Y785D02*
Y787D01*
Y796D02*
Y800D01*
Y841D02*
Y845D01*
Y850D02*
Y852D01*
X1145Y775D02*
Y779D01*
Y785D02*
Y787D01*
Y796D02*
Y800D01*
Y841D02*
Y845D01*
Y850D02*
Y852D01*
X1146Y775D02*
Y779D01*
Y785D02*
Y786D01*
Y795D02*
Y800D01*
Y840D02*
Y845D01*
Y850D02*
Y852D01*
X1146Y775D02*
Y779D01*
Y785D02*
Y786D01*
Y795D02*
Y799D01*
Y840D02*
Y844D01*
Y850D02*
Y852D01*
X1146Y775D02*
Y779D01*
Y785D02*
Y786D01*
Y795D02*
Y799D01*
Y840D02*
Y844D01*
Y850D02*
Y851D01*
X1146Y775D02*
Y779D01*
Y785D02*
Y786D01*
Y795D02*
Y799D01*
Y840D02*
Y844D01*
Y850D02*
Y851D01*
X1147Y775D02*
Y779D01*
Y785D02*
Y786D01*
Y795D02*
Y799D01*
Y840D02*
Y844D01*
Y849D02*
Y851D01*
X1147Y775D02*
Y779D01*
Y795D02*
Y799D01*
Y840D02*
Y844D01*
Y849D02*
Y851D01*
X1147Y775D02*
Y779D01*
Y795D02*
Y798D01*
Y839D02*
Y844D01*
Y849D02*
Y851D01*
X1148Y775D02*
Y779D01*
Y794D02*
Y798D01*
Y839D02*
Y843D01*
Y849D02*
Y851D01*
X1148Y775D02*
Y779D01*
Y794D02*
Y798D01*
Y812D02*
Y821D01*
Y838D02*
Y843D01*
Y849D02*
Y850D01*
X1148Y775D02*
Y779D01*
Y794D02*
Y798D01*
Y812D02*
Y822D01*
Y838D02*
Y843D01*
Y849D02*
Y850D01*
X1149Y775D02*
Y779D01*
Y794D02*
Y798D01*
Y810D02*
Y824D01*
Y838D02*
Y842D01*
Y849D02*
Y850D01*
X1149Y775D02*
Y779D01*
Y794D02*
Y798D01*
Y810D02*
Y824D01*
Y838D02*
Y842D01*
Y849D02*
Y849D01*
X1149Y775D02*
Y779D01*
Y793D02*
Y798D01*
Y808D02*
Y820D01*
Y838D02*
Y842D01*
Y848D02*
Y849D01*
X1150Y775D02*
Y779D01*
Y793D02*
Y798D01*
Y808D02*
Y820D01*
Y837D02*
Y842D01*
Y848D02*
Y849D01*
X1150Y775D02*
Y779D01*
Y793D02*
Y797D01*
Y808D02*
Y817D01*
Y837D02*
Y842D01*
Y848D02*
Y849D01*
X1150Y775D02*
Y779D01*
Y793D02*
Y797D01*
Y807D02*
Y817D01*
Y837D02*
Y841D01*
Y848D02*
Y849D01*
X1150Y775D02*
Y779D01*
Y793D02*
Y797D01*
Y806D02*
Y814D01*
Y836D02*
Y841D01*
Y847D02*
Y848D01*
X1151Y775D02*
Y779D01*
Y793D02*
Y797D01*
Y806D02*
Y814D01*
Y836D02*
Y841D01*
Y847D02*
Y848D01*
X1151Y775D02*
Y779D01*
Y793D02*
Y797D01*
Y806D02*
Y814D01*
Y836D02*
Y840D01*
Y847D02*
Y848D01*
X1151Y775D02*
Y779D01*
Y792D02*
Y796D01*
Y805D02*
Y812D01*
Y836D02*
Y840D01*
Y847D02*
Y848D01*
X1152Y775D02*
Y779D01*
Y792D02*
Y796D01*
Y805D02*
Y812D01*
Y835D02*
Y840D01*
X1152Y775D02*
Y779D01*
Y793D02*
Y796D01*
Y804D02*
Y810D01*
Y835D02*
Y839D01*
X1152Y775D02*
Y779D01*
Y793D02*
Y796D01*
Y804D02*
Y810D01*
Y834D02*
Y839D01*
X1153Y775D02*
Y779D01*
Y793D02*
Y796D01*
Y803D02*
Y809D01*
Y834D02*
Y839D01*
X1153Y775D02*
Y779D01*
Y792D02*
Y796D01*
Y803D02*
Y809D01*
Y834D02*
Y838D01*
X1153Y775D02*
Y779D01*
Y792D02*
Y796D01*
Y803D02*
Y808D01*
Y834D02*
Y838D01*
X1153Y775D02*
Y779D01*
Y792D02*
Y795D01*
Y803D02*
Y808D01*
Y834D02*
Y838D01*
X1154Y775D02*
Y779D01*
Y792D02*
Y795D01*
Y803D02*
Y807D01*
Y833D02*
Y837D01*
X1154Y775D02*
Y779D01*
Y792D02*
Y795D01*
Y802D02*
Y807D01*
Y833D02*
Y836D01*
X1154Y775D02*
Y779D01*
Y792D02*
Y795D01*
Y802D02*
Y806D01*
Y833D02*
Y836D01*
X1155Y775D02*
Y779D01*
Y792D02*
Y795D01*
Y801D02*
Y806D01*
Y833D02*
Y836D01*
X1155Y775D02*
Y779D01*
Y792D02*
Y795D01*
Y801D02*
Y806D01*
Y832D02*
Y835D01*
X1155Y775D02*
Y779D01*
Y792D02*
Y795D01*
Y801D02*
Y805D01*
Y832D02*
Y835D01*
X1156Y775D02*
Y779D01*
Y792D02*
Y795D01*
Y801D02*
Y805D01*
Y832D02*
Y834D01*
X1156Y775D02*
Y779D01*
Y792D02*
Y795D01*
Y801D02*
Y805D01*
Y831D02*
Y833D01*
X1156Y775D02*
Y779D01*
Y792D02*
Y795D01*
Y800D02*
Y805D01*
Y831D02*
Y833D01*
X1156Y775D02*
Y779D01*
Y791D02*
Y795D01*
Y800D02*
Y804D01*
Y831D02*
Y832D01*
X1157Y775D02*
Y779D01*
Y791D02*
Y795D01*
Y800D02*
Y804D01*
Y830D02*
Y832D01*
X1157Y775D02*
Y779D01*
Y791D02*
Y795D01*
Y800D02*
Y804D01*
Y830D02*
Y831D01*
X1157Y775D02*
Y779D01*
Y791D02*
Y795D01*
Y800D02*
Y804D01*
Y831D02*
Y831D01*
X1158Y775D02*
Y779D01*
Y791D02*
Y795D01*
Y800D02*
Y803D01*
X1158Y775D02*
Y779D01*
Y791D02*
Y795D01*
Y799D02*
Y803D01*
X1158Y775D02*
Y779D01*
Y791D02*
Y795D01*
Y799D02*
Y803D01*
X1158Y775D02*
Y779D01*
Y791D02*
Y795D01*
Y799D02*
Y803D01*
X1159Y775D02*
Y779D01*
Y791D02*
Y795D01*
Y799D02*
Y803D01*
X1159Y775D02*
Y779D01*
Y791D02*
Y795D01*
Y799D02*
Y803D01*
X1159Y775D02*
Y779D01*
Y791D02*
Y795D01*
Y799D02*
Y803D01*
X1160Y776D02*
Y779D01*
Y791D02*
Y795D01*
Y799D02*
Y803D01*
X1160Y776D02*
Y779D01*
Y791D02*
Y795D01*
Y798D02*
Y803D01*
X1160Y776D02*
Y779D01*
Y791D02*
Y795D01*
Y798D02*
Y803D01*
X1161Y776D02*
Y779D01*
Y791D02*
Y795D01*
Y798D02*
Y802D01*
X1161Y776D02*
Y779D01*
Y791D02*
Y795D01*
Y798D02*
Y802D01*
X1161Y776D02*
Y779D01*
Y791D02*
Y795D01*
Y798D02*
Y802D01*
X1161Y776D02*
Y779D01*
Y791D02*
Y795D01*
Y798D02*
Y802D01*
X1162Y776D02*
Y779D01*
Y791D02*
Y795D01*
Y798D02*
Y802D01*
X1162Y776D02*
Y779D01*
Y791D02*
Y795D01*
Y798D02*
Y802D01*
X1162Y776D02*
Y779D01*
Y791D02*
Y795D01*
Y798D02*
Y802D01*
X1163Y776D02*
Y779D01*
Y791D02*
Y795D01*
Y798D02*
Y802D01*
X1163Y776D02*
Y779D01*
Y791D02*
Y795D01*
Y798D02*
Y802D01*
X1163Y776D02*
Y779D01*
Y791D02*
Y795D01*
Y798D02*
Y802D01*
X1164Y776D02*
Y779D01*
Y791D02*
Y795D01*
Y798D02*
Y802D01*
Y832D02*
Y834D01*
X1164Y776D02*
Y779D01*
Y791D02*
Y795D01*
Y798D02*
Y802D01*
Y832D02*
Y834D01*
X1164Y776D02*
Y779D01*
Y791D02*
Y795D01*
Y798D02*
Y802D01*
Y831D02*
Y834D01*
X1164Y776D02*
Y779D01*
Y791D02*
Y795D01*
Y798D02*
Y802D01*
Y831D02*
Y833D01*
X1165Y776D02*
Y779D01*
Y791D02*
Y795D01*
Y798D02*
Y802D01*
Y830D02*
Y833D01*
X1165Y776D02*
Y779D01*
Y792D02*
Y795D01*
Y798D02*
Y802D01*
Y830D02*
Y832D01*
X1165Y776D02*
Y780D01*
Y792D02*
Y795D01*
Y798D02*
Y802D01*
Y829D02*
Y832D01*
X1166Y776D02*
Y780D01*
Y792D02*
Y795D01*
Y798D02*
Y802D01*
Y829D02*
Y832D01*
X1166Y776D02*
Y780D01*
Y792D02*
Y795D01*
Y798D02*
Y802D01*
Y829D02*
Y831D01*
X1166Y776D02*
Y780D01*
Y792D02*
Y795D01*
Y798D02*
Y802D01*
Y828D02*
Y831D01*
X1167Y776D02*
Y780D01*
Y792D02*
Y795D01*
Y798D02*
Y802D01*
Y828D02*
Y831D01*
X1167Y776D02*
Y780D01*
Y792D02*
Y795D01*
Y798D02*
Y802D01*
Y828D02*
Y831D01*
X1167Y776D02*
Y780D01*
Y792D02*
Y795D01*
Y798D02*
Y802D01*
Y828D02*
Y831D01*
X1168Y776D02*
Y780D01*
Y792D02*
Y795D01*
Y798D02*
Y803D01*
Y827D02*
Y831D01*
X1168Y776D02*
Y780D01*
Y792D02*
Y795D01*
Y799D02*
Y803D01*
Y827D02*
Y831D01*
X1168Y776D02*
Y780D01*
Y792D02*
Y796D01*
Y799D02*
Y803D01*
Y827D02*
Y830D01*
X1168Y776D02*
Y780D01*
Y792D02*
Y796D01*
Y799D02*
Y803D01*
Y827D02*
Y830D01*
X1169Y776D02*
Y780D01*
Y792D02*
Y796D01*
Y799D02*
Y803D01*
Y827D02*
Y830D01*
X1169Y776D02*
Y780D01*
Y792D02*
Y796D01*
Y799D02*
Y803D01*
Y827D02*
Y830D01*
X1169Y777D02*
Y780D01*
Y793D02*
Y796D01*
Y799D02*
Y803D01*
Y827D02*
Y830D01*
X1170Y777D02*
Y780D01*
Y793D02*
Y796D01*
Y799D02*
Y803D01*
Y827D02*
Y830D01*
X1170Y777D02*
Y781D01*
Y792D02*
Y796D01*
Y799D02*
Y803D01*
Y827D02*
Y830D01*
X1170Y777D02*
Y781D01*
Y792D02*
Y796D01*
Y800D02*
Y803D01*
Y827D02*
Y830D01*
X1171Y777D02*
Y781D01*
Y793D02*
Y797D01*
Y800D02*
Y804D01*
Y827D02*
Y830D01*
X1171Y777D02*
Y781D01*
Y793D02*
Y797D01*
Y800D02*
Y804D01*
Y827D02*
Y830D01*
X1171Y777D02*
Y781D01*
Y793D02*
Y797D01*
Y800D02*
Y804D01*
Y827D02*
Y830D01*
X1171Y777D02*
Y781D01*
Y793D02*
Y797D01*
Y800D02*
Y805D01*
Y827D02*
Y830D01*
X1172Y777D02*
Y781D01*
Y793D02*
Y797D01*
Y801D02*
Y805D01*
Y827D02*
Y830D01*
X1172Y777D02*
Y781D01*
Y793D02*
Y797D01*
Y801D02*
Y805D01*
Y827D02*
Y830D01*
X1172Y777D02*
Y781D01*
Y793D02*
Y798D01*
Y801D02*
Y805D01*
Y827D02*
Y830D01*
X1173Y777D02*
Y781D01*
Y794D02*
Y798D01*
Y801D02*
Y805D01*
Y827D02*
Y830D01*
X1173Y777D02*
Y781D01*
Y794D02*
Y798D01*
Y801D02*
Y806D01*
Y827D02*
Y830D01*
X1173Y778D02*
Y781D01*
Y794D02*
Y798D01*
Y802D02*
Y806D01*
Y827D02*
Y830D01*
X1173Y778D02*
Y781D01*
Y794D02*
Y798D01*
Y802D02*
Y807D01*
Y827D02*
Y830D01*
X1174Y778D02*
Y782D01*
Y794D02*
Y798D01*
Y802D02*
Y807D01*
Y827D02*
Y831D01*
X1174Y778D02*
Y782D01*
Y795D02*
Y798D01*
Y802D02*
Y807D01*
Y827D02*
Y831D01*
X1174Y778D02*
Y781D01*
Y795D02*
Y798D01*
Y803D02*
Y808D01*
Y827D02*
Y831D01*
X1175Y778D02*
Y782D01*
Y795D02*
Y799D01*
Y803D02*
Y809D01*
Y827D02*
Y831D01*
X1175Y778D02*
Y782D01*
Y795D02*
Y799D01*
Y803D02*
Y809D01*
Y827D02*
Y831D01*
X1175Y778D02*
Y782D01*
Y795D02*
Y799D01*
Y803D02*
Y809D01*
Y827D02*
Y831D01*
X1176Y778D02*
Y782D01*
Y795D02*
Y799D01*
Y804D02*
Y810D01*
Y827D02*
Y832D01*
X1176Y778D02*
Y782D01*
Y795D02*
Y800D01*
Y804D02*
Y811D01*
Y827D02*
Y832D01*
X1176Y779D02*
Y782D01*
Y795D02*
Y800D01*
Y805D02*
Y811D01*
Y827D02*
Y832D01*
X1176Y779D02*
Y782D01*
Y796D02*
Y800D01*
Y805D02*
Y811D01*
Y828D02*
Y832D01*
X1177Y779D02*
Y782D01*
Y796D02*
Y800D01*
Y806D02*
Y812D01*
Y828D02*
Y833D01*
X1177Y779D02*
Y782D01*
Y796D02*
Y800D01*
Y806D02*
Y813D01*
Y828D02*
Y833D01*
X1177Y779D02*
Y782D01*
Y796D02*
Y801D01*
Y807D02*
Y814D01*
Y828D02*
Y833D01*
X1178Y779D02*
Y782D01*
Y796D02*
Y801D01*
Y807D02*
Y814D01*
Y829D02*
Y834D01*
X1178Y779D02*
Y783D01*
Y797D02*
Y801D01*
Y808D02*
Y816D01*
Y829D02*
Y834D01*
X1178Y779D02*
Y783D01*
Y797D02*
Y801D01*
Y808D02*
Y816D01*
Y829D02*
Y835D01*
X1179Y779D02*
Y783D01*
Y797D02*
Y801D01*
Y809D02*
Y817D01*
Y829D02*
Y835D01*
X1179Y779D02*
Y783D01*
Y797D02*
Y801D01*
Y809D02*
Y818D01*
Y830D02*
Y836D01*
X1179Y779D02*
Y783D01*
Y798D02*
Y802D01*
Y810D02*
Y818D01*
Y818D02*
Y819D01*
Y830D02*
Y836D01*
X1179Y779D02*
Y783D01*
Y798D02*
Y802D01*
Y811D02*
Y819D01*
Y830D02*
Y836D01*
X1180Y779D02*
Y783D01*
Y798D02*
Y803D01*
Y811D02*
Y819D01*
Y831D02*
Y836D01*
X1180Y779D02*
Y783D01*
Y798D02*
Y803D01*
Y812D02*
Y821D01*
Y831D02*
Y836D01*
X1180Y779D02*
Y784D01*
Y798D02*
Y803D01*
Y812D02*
Y821D01*
Y831D02*
Y836D01*
X1181Y780D02*
Y784D01*
Y798D02*
Y803D01*
Y814D02*
Y822D01*
Y832D02*
Y837D01*
X1181Y780D02*
Y784D01*
Y799D02*
Y803D01*
Y814D02*
Y822D01*
Y832D02*
Y837D01*
X1181Y780D02*
Y784D01*
Y799D02*
Y803D01*
Y816D02*
Y823D01*
Y833D02*
Y837D01*
X1182Y780D02*
Y784D01*
Y799D02*
Y804D01*
Y816D02*
Y823D01*
Y833D02*
Y837D01*
X1182Y780D02*
Y784D01*
Y800D02*
Y804D01*
Y817D02*
Y824D01*
Y833D02*
Y837D01*
X1182Y780D02*
Y784D01*
Y800D02*
Y804D01*
Y817D02*
Y824D01*
Y833D02*
Y837D01*
X1183Y780D02*
Y784D01*
Y800D02*
Y804D01*
Y818D02*
Y825D01*
Y833D02*
Y837D01*
X1183Y780D02*
Y784D01*
Y801D02*
Y804D01*
Y818D02*
Y825D01*
Y833D02*
Y837D01*
X1183Y780D02*
Y784D01*
Y801D02*
Y805D01*
Y819D02*
Y825D01*
Y833D02*
Y837D01*
X1183Y781D02*
Y784D01*
Y801D02*
Y805D01*
Y819D02*
Y827D01*
Y833D02*
Y837D01*
X1184Y781D02*
Y785D01*
Y802D02*
Y805D01*
Y820D02*
Y827D01*
Y833D02*
Y837D01*
X1184Y781D02*
Y785D01*
Y802D02*
Y805D01*
Y821D02*
Y828D01*
Y833D02*
Y837D01*
X1184Y781D02*
Y785D01*
Y802D02*
Y805D01*
Y821D02*
Y828D01*
Y832D02*
Y837D01*
X1185Y781D02*
Y785D01*
Y803D02*
Y806D01*
Y821D02*
Y831D01*
Y831D02*
Y837D01*
X1185Y781D02*
Y785D01*
Y803D02*
Y806D01*
Y822D02*
Y837D01*
X1185Y781D02*
Y785D01*
Y803D02*
Y806D01*
Y823D02*
Y836D01*
X1186Y782D02*
Y785D01*
Y804D02*
Y806D01*
Y823D02*
Y836D01*
X1186Y782D02*
Y785D01*
Y805D02*
Y807D01*
Y823D02*
Y836D01*
X1186Y782D02*
Y786D01*
Y805D02*
Y807D01*
Y824D02*
Y836D01*
X1186Y782D02*
Y786D01*
Y806D02*
Y807D01*
Y825D02*
Y836D01*
X1187Y782D02*
Y786D01*
Y806D02*
Y807D01*
Y825D02*
Y836D01*
X1187Y782D02*
Y786D01*
Y826D02*
Y835D01*
X1187Y782D02*
Y786D01*
Y827D02*
Y834D01*
X1188Y782D02*
Y787D01*
Y827D02*
Y834D01*
X1188Y782D02*
Y787D01*
X1188Y782D02*
Y787D01*
X1189Y783D02*
Y787D01*
X1189Y783D02*
Y787D01*
X1189Y783D02*
Y787D01*
X1189Y783D02*
Y787D01*
X1190Y783D02*
Y787D01*
X1190Y784D02*
Y787D01*
X1190Y784D02*
Y788D01*
X1191Y784D02*
Y788D01*
X1191Y784D02*
Y788D01*
X1191Y784D02*
Y788D01*
X1191Y784D02*
Y788D01*
X1192Y785D02*
Y789D01*
X1192Y785D02*
Y789D01*
X1192Y785D02*
Y789D01*
X1193Y785D02*
Y789D01*
X1193Y785D02*
Y789D01*
X1193Y785D02*
Y790D01*
X1194Y786D02*
Y790D01*
X1194Y786D02*
Y790D01*
X1194Y786D02*
Y791D01*
X1194Y787D02*
Y791D01*
X1195Y787D02*
Y791D01*
X1195Y787D02*
Y791D01*
X1195Y787D02*
Y792D01*
X1196Y787D02*
Y792D01*
X1196Y788D02*
Y792D01*
X1196Y788D02*
Y793D01*
X1197Y788D02*
Y793D01*
X1197Y788D02*
Y793D01*
X1197Y789D02*
Y794D01*
Y842D02*
Y843D01*
X1197Y789D02*
Y794D01*
Y842D02*
Y843D01*
X1198Y789D02*
Y794D01*
Y842D02*
Y843D01*
X1198Y789D02*
Y795D01*
Y842D02*
Y843D01*
X1198Y789D02*
Y795D01*
Y842D02*
Y843D01*
X1199Y790D02*
Y795D01*
Y842D02*
Y843D01*
X1199Y790D02*
Y796D01*
Y843D02*
Y843D01*
X1199Y791D02*
Y796D01*
Y843D02*
Y844D01*
X1200Y791D02*
Y796D01*
Y843D02*
Y844D01*
X1200Y791D02*
Y796D01*
Y843D02*
Y844D01*
X1200Y791D02*
Y797D01*
Y843D02*
Y844D01*
X1201Y792D02*
Y797D01*
Y843D02*
Y844D01*
X1201Y792D02*
Y797D01*
Y843D02*
Y844D01*
X1201Y792D02*
Y798D01*
Y843D02*
Y844D01*
X1201Y793D02*
Y798D01*
Y843D02*
Y844D01*
X1202Y793D02*
Y798D01*
Y843D02*
Y844D01*
X1202Y794D02*
Y799D01*
Y843D02*
Y844D01*
X1202Y794D02*
Y799D01*
Y843D02*
Y844D01*
X1203Y794D02*
Y799D01*
Y843D02*
Y844D01*
X1203Y794D02*
Y800D01*
Y843D02*
Y844D01*
X1203Y795D02*
Y800D01*
Y843D02*
Y844D01*
X1204Y795D02*
Y800D01*
Y843D02*
Y844D01*
X1204Y796D02*
Y801D01*
Y843D02*
Y844D01*
X1204Y796D02*
Y801D01*
Y843D02*
Y844D01*
X1204Y796D02*
Y801D01*
Y843D02*
Y844D01*
X1205Y797D02*
Y802D01*
Y843D02*
Y844D01*
X1205Y797D02*
Y802D01*
Y842D02*
Y844D01*
X1205Y797D02*
Y802D01*
Y842D02*
Y844D01*
X1206Y798D02*
Y803D01*
Y842D02*
Y844D01*
X1206Y798D02*
Y803D01*
Y842D02*
Y844D01*
X1206Y798D02*
Y803D01*
Y842D02*
Y844D01*
X1207Y798D02*
Y803D01*
Y842D02*
Y844D01*
X1207Y799D02*
Y803D01*
Y842D02*
Y844D01*
X1207Y799D02*
Y804D01*
Y842D02*
Y844D01*
X1207Y799D02*
Y804D01*
Y842D02*
Y844D01*
X1208Y799D02*
Y804D01*
Y842D02*
Y844D01*
X1208Y800D02*
Y805D01*
Y841D02*
Y844D01*
X1208Y800D02*
Y805D01*
Y841D02*
Y844D01*
X1209Y800D02*
Y805D01*
Y841D02*
Y844D01*
X1209Y800D02*
Y806D01*
Y841D02*
Y844D01*
X1209Y801D02*
Y806D01*
Y841D02*
Y844D01*
X1209Y801D02*
Y807D01*
Y841D02*
Y844D01*
X1210Y801D02*
Y807D01*
Y841D02*
Y844D01*
X1210Y802D02*
Y807D01*
Y841D02*
Y844D01*
X1210Y802D02*
Y807D01*
Y841D02*
Y843D01*
X1211Y803D02*
Y808D01*
Y840D02*
Y843D01*
X1211Y803D02*
Y808D01*
Y840D02*
Y843D01*
X1211Y803D02*
Y808D01*
Y840D02*
Y843D01*
X1212Y803D02*
Y809D01*
Y840D02*
Y843D01*
X1212Y804D02*
Y809D01*
Y840D02*
Y843D01*
X1212Y804D02*
Y809D01*
Y839D02*
Y843D01*
X1212Y805D02*
Y810D01*
Y839D02*
Y842D01*
X1213Y805D02*
Y810D01*
Y839D02*
Y842D01*
X1213Y805D02*
Y810D01*
Y839D02*
Y842D01*
X1213Y806D02*
Y811D01*
Y838D02*
Y842D01*
X1214Y806D02*
Y811D01*
Y838D02*
Y842D01*
X1214Y807D02*
Y812D01*
Y838D02*
Y842D01*
X1214Y807D02*
Y812D01*
Y838D02*
Y841D01*
X1215Y807D02*
Y812D01*
Y837D02*
Y841D01*
X1215Y807D02*
Y812D01*
Y837D02*
Y841D01*
X1215Y808D02*
Y813D01*
Y836D02*
Y841D01*
X1215Y808D02*
Y814D01*
Y836D02*
Y841D01*
X1216Y808D02*
Y814D01*
Y836D02*
Y840D01*
X1216Y809D02*
Y815D01*
Y835D02*
Y840D01*
X1216Y809D02*
Y815D01*
Y835D02*
Y840D01*
X1217Y809D02*
Y816D01*
Y834D02*
Y839D01*
X1217Y810D02*
Y816D01*
Y833D02*
Y839D01*
X1217Y810D02*
Y818D01*
Y832D02*
Y839D01*
X1218Y810D02*
Y818D01*
Y832D02*
Y838D01*
X1218Y812D02*
Y819D01*
Y830D02*
Y831D01*
Y831D02*
Y838D01*
X1218Y812D02*
Y820D01*
Y830D02*
Y838D01*
X1219Y812D02*
Y820D01*
Y829D02*
Y837D01*
X1219Y812D02*
Y836D01*
X1219Y813D02*
Y836D01*
X1219Y814D02*
Y836D01*
X1220Y814D02*
Y835D01*
X1220Y816D02*
Y834D01*
X1220Y816D02*
Y834D01*
X1221Y818D02*
Y832D01*
X1221Y818D02*
Y832D01*
X1221Y820D02*
Y830D01*
X1222Y820D02*
Y829D01*
X1222Y821D02*
Y821D01*
X1259Y57D02*
Y207D01*
X1258Y57D02*
Y207D01*
X1258Y57D02*
Y207D01*
X1258Y57D02*
Y207D01*
X1258Y57D02*
Y207D01*
X1257Y57D02*
Y207D01*
X1257Y57D02*
Y207D01*
X1257Y57D02*
Y207D01*
X1256Y57D02*
Y207D01*
X1256Y57D02*
Y207D01*
X1256Y57D02*
Y207D01*
X1255Y57D02*
Y207D01*
X1255Y57D02*
Y207D01*
X1255Y57D02*
Y207D01*
X1255Y57D02*
Y207D01*
X1254Y57D02*
Y207D01*
X1254Y57D02*
Y207D01*
X1254Y57D02*
Y207D01*
X1253Y57D02*
Y207D01*
X1253Y57D02*
Y207D01*
X1253Y57D02*
Y207D01*
X1253Y57D02*
Y207D01*
X1252Y57D02*
Y207D01*
X1252Y57D02*
Y207D01*
X1252Y57D02*
Y207D01*
X1251Y57D02*
Y207D01*
X1251Y57D02*
Y207D01*
X1251Y57D02*
Y207D01*
X1250Y57D02*
Y207D01*
X1250Y57D02*
Y207D01*
X1250Y57D02*
Y207D01*
X1250Y57D02*
Y207D01*
X1249Y57D02*
Y207D01*
X1249Y57D02*
Y207D01*
X1249Y57D02*
Y207D01*
X1248Y57D02*
Y207D01*
X1248Y57D02*
Y207D01*
X1248Y57D02*
Y207D01*
X1247Y57D02*
Y207D01*
X1247Y57D02*
Y207D01*
X1247Y57D02*
Y207D01*
X1247Y57D02*
Y207D01*
X1246Y57D02*
Y207D01*
X1246Y57D02*
Y207D01*
X1246Y57D02*
Y207D01*
X1245Y57D02*
Y207D01*
X1245Y57D02*
Y207D01*
X1245Y57D02*
Y207D01*
X1244Y57D02*
Y207D01*
X1244Y57D02*
Y207D01*
X1244Y57D02*
Y207D01*
X1243Y57D02*
Y207D01*
X1243Y57D02*
Y207D01*
X1243Y57D02*
Y207D01*
X1243Y57D02*
Y207D01*
X1242Y57D02*
Y207D01*
X1242Y194D02*
Y207D01*
Y105D02*
Y193D01*
Y70D02*
Y103D01*
Y57D02*
Y68D01*
X1242Y194D02*
Y207D01*
Y105D02*
Y193D01*
Y70D02*
Y103D01*
Y57D02*
Y68D01*
X1241Y193D02*
Y207D01*
Y105D02*
Y147D01*
Y57D02*
Y68D01*
X1241Y193D02*
Y207D01*
Y105D02*
Y147D01*
Y57D02*
Y68D01*
X1241Y195D02*
Y207D01*
Y105D02*
Y147D01*
Y57D02*
Y68D01*
X1240Y195D02*
Y207D01*
Y105D02*
Y147D01*
Y57D02*
Y68D01*
X1240Y194D02*
Y207D01*
Y192D02*
Y193D01*
Y104D02*
Y147D01*
Y57D02*
Y69D01*
X1240Y194D02*
Y207D01*
Y192D02*
Y193D01*
Y104D02*
Y147D01*
Y57D02*
Y69D01*
X1240Y193D02*
Y207D01*
Y192D02*
Y193D01*
Y105D02*
Y147D01*
Y57D02*
Y68D01*
X1239Y191D02*
Y207D01*
Y100D02*
Y153D01*
Y57D02*
Y71D01*
X1239Y191D02*
Y207D01*
Y100D02*
Y153D01*
Y57D02*
Y71D01*
X1239Y187D02*
Y207D01*
Y97D02*
Y154D01*
Y57D02*
Y73D01*
X1238Y187D02*
Y207D01*
Y97D02*
Y154D01*
Y57D02*
Y73D01*
X1238Y186D02*
Y207D01*
Y95D02*
Y156D01*
Y57D02*
Y74D01*
X1238Y186D02*
Y207D01*
Y95D02*
Y156D01*
Y57D02*
Y74D01*
X1237Y186D02*
Y207D01*
Y94D02*
Y156D01*
Y57D02*
Y76D01*
X1237Y186D02*
Y207D01*
Y94D02*
Y156D01*
Y57D02*
Y76D01*
X1237Y184D02*
Y207D01*
Y94D02*
Y157D01*
Y57D02*
Y76D01*
X1237Y184D02*
Y207D01*
Y94D02*
Y157D01*
Y57D02*
Y76D01*
X1236Y184D02*
Y207D01*
Y93D02*
Y159D01*
Y57D02*
Y78D01*
X1236Y184D02*
Y207D01*
Y93D02*
Y159D01*
Y57D02*
Y78D01*
X1236Y183D02*
Y207D01*
Y92D02*
Y158D01*
Y57D02*
Y78D01*
X1235Y183D02*
Y207D01*
Y92D02*
Y158D01*
Y57D02*
Y78D01*
X1235Y182D02*
Y207D01*
Y92D02*
Y159D01*
Y57D02*
Y78D01*
X1235Y182D02*
Y207D01*
Y92D02*
Y160D01*
Y57D02*
Y79D01*
X1235Y182D02*
Y207D01*
Y92D02*
Y160D01*
Y57D02*
Y79D01*
X1234Y181D02*
Y207D01*
Y91D02*
Y159D01*
Y57D02*
Y79D01*
X1234Y181D02*
Y207D01*
Y91D02*
Y159D01*
Y57D02*
Y79D01*
X1234Y181D02*
Y207D01*
Y91D02*
Y159D01*
Y57D02*
Y81D01*
X1233Y181D02*
Y207D01*
Y91D02*
Y159D01*
Y57D02*
Y81D01*
X1233Y181D02*
Y207D01*
Y92D02*
Y159D01*
Y57D02*
Y80D01*
X1233Y181D02*
Y207D01*
Y92D02*
Y159D01*
Y57D02*
Y80D01*
X1232Y181D02*
Y207D01*
Y91D02*
Y159D01*
Y57D02*
Y81D01*
X1232Y181D02*
Y207D01*
Y91D02*
Y159D01*
Y57D02*
Y81D01*
X1232Y179D02*
Y207D01*
Y90D02*
Y159D01*
Y57D02*
Y81D01*
X1232Y179D02*
Y207D01*
Y90D02*
Y159D01*
Y57D02*
Y81D01*
X1231Y180D02*
Y207D01*
Y91D02*
Y160D01*
Y57D02*
Y81D01*
X1231Y180D02*
Y207D01*
Y91D02*
Y160D01*
Y57D02*
Y81D01*
X1231Y179D02*
Y207D01*
Y92D02*
Y159D01*
Y57D02*
Y82D01*
X1230Y178D02*
Y207D01*
Y91D02*
Y161D01*
Y57D02*
Y82D01*
X1230Y178D02*
Y207D01*
Y91D02*
Y161D01*
Y57D02*
Y82D01*
X1230Y177D02*
Y207D01*
Y92D02*
Y159D01*
Y57D02*
Y83D01*
X1229Y177D02*
Y207D01*
Y92D02*
Y159D01*
Y57D02*
Y83D01*
X1229Y178D02*
Y207D01*
Y91D02*
Y160D01*
Y57D02*
Y82D01*
X1229Y178D02*
Y207D01*
Y91D02*
Y160D01*
Y57D02*
Y82D01*
X1229Y177D02*
Y207D01*
Y91D02*
Y159D01*
Y57D02*
Y83D01*
X1228Y177D02*
Y207D01*
Y91D02*
Y159D01*
Y57D02*
Y83D01*
X1228Y178D02*
Y207D01*
Y92D02*
Y159D01*
Y57D02*
Y84D01*
X1228Y178D02*
Y207D01*
Y92D02*
Y159D01*
Y57D02*
Y84D01*
X1227Y178D02*
Y207D01*
Y92D02*
Y159D01*
Y57D02*
Y83D01*
X1227Y178D02*
Y207D01*
Y92D02*
Y159D01*
Y57D02*
Y83D01*
X1227Y177D02*
Y207D01*
Y92D02*
Y159D01*
Y57D02*
Y85D01*
X1226Y177D02*
Y207D01*
Y92D02*
Y159D01*
Y57D02*
Y85D01*
X1226Y177D02*
Y207D01*
Y91D02*
Y158D01*
Y57D02*
Y85D01*
X1226Y177D02*
Y207D01*
Y92D02*
Y159D01*
Y57D02*
Y84D01*
X1225Y177D02*
Y207D01*
Y92D02*
Y159D01*
Y57D02*
Y84D01*
X1225Y176D02*
Y207D01*
Y92D02*
Y158D01*
Y57D02*
Y85D01*
X1225Y176D02*
Y207D01*
Y92D02*
Y158D01*
Y57D02*
Y85D01*
X1225Y174D02*
Y207D01*
Y94D02*
Y157D01*
Y57D02*
Y85D01*
X1224Y174D02*
Y207D01*
Y94D02*
Y157D01*
Y57D02*
Y85D01*
X1224Y176D02*
Y207D01*
Y93D02*
Y159D01*
Y57D02*
Y85D01*
X1224Y176D02*
Y207D01*
Y93D02*
Y159D01*
Y57D02*
Y85D01*
X1223Y176D02*
Y207D01*
Y93D02*
Y158D01*
Y57D02*
Y86D01*
X1223Y176D02*
Y207D01*
Y93D02*
Y158D01*
Y57D02*
Y86D01*
X1223Y176D02*
Y207D01*
Y94D02*
Y157D01*
Y57D02*
Y86D01*
X1222Y176D02*
Y207D01*
Y94D02*
Y157D01*
Y57D02*
Y86D01*
X1222Y175D02*
Y207D01*
Y94D02*
Y158D01*
Y57D02*
Y87D01*
X1222Y175D02*
Y207D01*
Y94D02*
Y156D01*
Y57D02*
Y86D01*
X1222Y175D02*
Y207D01*
Y94D02*
Y156D01*
Y57D02*
Y86D01*
X1221Y174D02*
Y207D01*
Y94D02*
Y156D01*
Y57D02*
Y87D01*
X1221Y174D02*
Y207D01*
Y94D02*
Y156D01*
Y57D02*
Y87D01*
X1221Y174D02*
Y207D01*
Y94D02*
Y156D01*
Y57D02*
Y86D01*
X1220Y174D02*
Y207D01*
Y94D02*
Y156D01*
Y57D02*
Y86D01*
X1220Y173D02*
Y207D01*
Y94D02*
Y156D01*
Y57D02*
Y86D01*
X1220Y173D02*
Y207D01*
Y94D02*
Y156D01*
Y57D02*
Y86D01*
X1219Y174D02*
Y207D01*
Y95D02*
Y156D01*
Y57D02*
Y87D01*
X1219Y174D02*
Y207D01*
Y95D02*
Y156D01*
Y57D02*
Y87D01*
X1219Y174D02*
Y207D01*
Y94D02*
Y156D01*
Y57D02*
Y87D01*
X1219Y174D02*
Y207D01*
Y94D02*
Y156D01*
Y57D02*
Y87D01*
X1218Y173D02*
Y207D01*
Y96D02*
Y156D01*
Y57D02*
Y89D01*
X1218Y173D02*
Y207D01*
Y96D02*
Y156D01*
Y57D02*
Y89D01*
X1218Y173D02*
Y207D01*
Y95D02*
Y155D01*
Y57D02*
Y87D01*
X1217Y172D02*
Y207D01*
Y96D02*
Y155D01*
Y57D02*
Y88D01*
X1217Y172D02*
Y207D01*
Y96D02*
Y155D01*
Y57D02*
Y88D01*
X1217Y173D02*
Y207D01*
Y95D02*
Y156D01*
Y57D02*
Y89D01*
X1217Y173D02*
Y207D01*
Y95D02*
Y156D01*
Y57D02*
Y89D01*
X1216Y172D02*
Y207D01*
Y96D02*
Y154D01*
Y57D02*
Y90D01*
X1216Y172D02*
Y207D01*
Y96D02*
Y154D01*
Y57D02*
Y90D01*
X1216Y172D02*
Y207D01*
Y96D02*
Y155D01*
Y57D02*
Y89D01*
X1215Y172D02*
Y207D01*
Y96D02*
Y155D01*
Y57D02*
Y89D01*
X1215Y170D02*
Y207D01*
Y97D02*
Y154D01*
Y57D02*
Y89D01*
X1215Y170D02*
Y207D01*
Y97D02*
Y154D01*
Y57D02*
Y89D01*
X1214Y172D02*
Y207D01*
Y97D02*
Y154D01*
Y57D02*
Y89D01*
X1214Y172D02*
Y207D01*
Y97D02*
Y154D01*
Y57D02*
Y89D01*
X1214Y170D02*
Y207D01*
Y97D02*
Y154D01*
Y57D02*
Y90D01*
X1214Y170D02*
Y207D01*
Y97D02*
Y154D01*
Y57D02*
Y90D01*
X1213Y171D02*
Y207D01*
Y98D02*
Y154D01*
Y57D02*
Y90D01*
X1213Y171D02*
Y207D01*
Y98D02*
Y154D01*
Y57D02*
Y92D01*
X1213Y171D02*
Y207D01*
Y98D02*
Y154D01*
Y57D02*
Y92D01*
X1212Y170D02*
Y207D01*
Y99D02*
Y153D01*
Y57D02*
Y90D01*
X1212Y170D02*
Y207D01*
Y99D02*
Y153D01*
Y57D02*
Y90D01*
X1212Y169D02*
Y207D01*
Y98D02*
Y152D01*
Y57D02*
Y90D01*
X1211Y169D02*
Y207D01*
Y98D02*
Y152D01*
Y57D02*
Y90D01*
X1211Y170D02*
Y207D01*
Y99D02*
Y152D01*
Y57D02*
Y90D01*
X1211Y170D02*
Y207D01*
Y99D02*
Y152D01*
Y57D02*
Y90D01*
X1211Y170D02*
Y207D01*
Y98D02*
Y152D01*
Y57D02*
Y91D01*
X1210Y170D02*
Y207D01*
Y98D02*
Y152D01*
Y57D02*
Y91D01*
X1210Y170D02*
Y207D01*
Y99D02*
Y152D01*
Y57D02*
Y91D01*
X1210Y170D02*
Y207D01*
Y99D02*
Y152D01*
Y57D02*
Y91D01*
X1209Y169D02*
Y207D01*
Y99D02*
Y152D01*
Y57D02*
Y94D01*
X1209Y169D02*
Y207D01*
Y99D02*
Y152D01*
Y57D02*
Y94D01*
X1209Y169D02*
Y207D01*
Y100D02*
Y152D01*
Y57D02*
Y91D01*
X1208Y167D02*
Y207D01*
Y100D02*
Y151D01*
Y57D02*
Y91D01*
X1208Y167D02*
Y207D01*
Y100D02*
Y151D01*
Y57D02*
Y91D01*
X1208Y169D02*
Y207D01*
Y100D02*
Y152D01*
Y57D02*
Y92D01*
X1207Y169D02*
Y207D01*
Y100D02*
Y152D01*
Y57D02*
Y92D01*
X1207Y169D02*
Y207D01*
Y101D02*
Y151D01*
Y57D02*
Y93D01*
X1207Y169D02*
Y207D01*
Y101D02*
Y151D01*
Y57D02*
Y93D01*
X1207Y169D02*
Y207D01*
Y100D02*
Y150D01*
Y57D02*
Y92D01*
X1206Y169D02*
Y207D01*
Y100D02*
Y150D01*
Y57D02*
Y92D01*
X1206Y168D02*
Y207D01*
Y101D02*
Y150D01*
Y57D02*
Y93D01*
X1206Y168D02*
Y207D01*
Y101D02*
Y150D01*
Y57D02*
Y93D01*
X1205Y168D02*
Y207D01*
Y150D02*
Y152D01*
Y100D02*
Y150D01*
Y57D02*
Y93D01*
X1205Y168D02*
Y207D01*
Y150D02*
Y152D01*
Y100D02*
Y150D01*
Y57D02*
Y93D01*
X1205Y165D02*
Y207D01*
Y101D02*
Y150D01*
Y57D02*
Y93D01*
X1204Y168D02*
Y207D01*
Y102D02*
Y151D01*
Y57D02*
Y94D01*
X1204Y168D02*
Y207D01*
Y102D02*
Y151D01*
Y57D02*
Y94D01*
X1204Y168D02*
Y207D01*
Y101D02*
Y150D01*
Y57D02*
Y94D01*
X1204Y168D02*
Y207D01*
Y101D02*
Y150D01*
Y57D02*
Y94D01*
X1203Y167D02*
Y207D01*
Y102D02*
Y150D01*
Y57D02*
Y96D01*
X1203Y167D02*
Y207D01*
Y102D02*
Y150D01*
Y57D02*
Y96D01*
X1203Y167D02*
Y207D01*
Y57D02*
Y94D01*
X1202Y167D02*
Y207D01*
Y57D02*
Y94D01*
X1202Y167D02*
Y207D01*
Y57D02*
Y96D01*
X1202Y167D02*
Y207D01*
Y57D02*
Y96D01*
X1202Y166D02*
Y207D01*
Y57D02*
Y94D01*
X1201Y166D02*
Y207D01*
Y57D02*
Y94D01*
X1201Y166D02*
Y207D01*
Y57D02*
Y96D01*
X1201Y166D02*
Y207D01*
Y57D02*
Y96D01*
X1200Y165D02*
Y207D01*
Y57D02*
Y96D01*
X1200Y166D02*
Y207D01*
Y57D02*
Y95D01*
X1200Y166D02*
Y207D01*
Y57D02*
Y95D01*
X1199Y165D02*
Y207D01*
Y57D02*
Y97D01*
X1199Y165D02*
Y207D01*
Y57D02*
Y97D01*
X1199Y165D02*
Y207D01*
Y57D02*
Y96D01*
X1199Y165D02*
Y207D01*
Y57D02*
Y96D01*
X1198Y164D02*
Y207D01*
Y57D02*
Y97D01*
X1198Y164D02*
Y207D01*
Y57D02*
Y97D01*
X1198Y165D02*
Y207D01*
Y57D02*
Y96D01*
X1197Y165D02*
Y207D01*
Y57D02*
Y96D01*
X1197Y165D02*
Y207D01*
Y57D02*
Y97D01*
X1197Y165D02*
Y207D01*
Y57D02*
Y97D01*
X1196Y164D02*
Y207D01*
Y57D02*
Y97D01*
X1196Y164D02*
Y207D01*
Y57D02*
Y97D01*
X1196Y164D02*
Y207D01*
Y57D02*
Y98D01*
X1196Y164D02*
Y207D01*
Y57D02*
Y97D01*
X1195Y164D02*
Y207D01*
Y57D02*
Y97D01*
X1195Y164D02*
Y207D01*
Y57D02*
Y97D01*
X1195Y164D02*
Y207D01*
Y57D02*
Y97D01*
X1194Y163D02*
Y207D01*
Y106D02*
Y146D01*
Y57D02*
Y98D01*
X1194Y163D02*
Y207D01*
Y106D02*
Y146D01*
Y57D02*
Y98D01*
X1194Y163D02*
Y207D01*
Y106D02*
Y145D01*
Y57D02*
Y99D01*
X1193Y163D02*
Y207D01*
Y106D02*
Y145D01*
Y57D02*
Y99D01*
X1193Y163D02*
Y207D01*
Y106D02*
Y145D01*
Y57D02*
Y98D01*
X1193Y163D02*
Y207D01*
Y106D02*
Y145D01*
Y57D02*
Y98D01*
X1192Y163D02*
Y207D01*
Y106D02*
Y145D01*
Y57D02*
Y99D01*
X1192Y163D02*
Y207D01*
Y106D02*
Y145D01*
Y57D02*
Y99D01*
X1192Y163D02*
Y207D01*
Y107D02*
Y145D01*
Y57D02*
Y99D01*
X1192Y163D02*
Y207D01*
Y107D02*
Y145D01*
Y57D02*
Y99D01*
X1191Y162D02*
Y207D01*
Y107D02*
Y145D01*
Y57D02*
Y99D01*
X1191Y161D02*
Y207D01*
Y108D02*
Y144D01*
Y57D02*
Y100D01*
X1191Y161D02*
Y207D01*
Y108D02*
Y144D01*
Y57D02*
Y100D01*
X1190Y161D02*
Y207D01*
Y107D02*
Y143D01*
Y57D02*
Y100D01*
X1190Y161D02*
Y207D01*
Y107D02*
Y143D01*
Y57D02*
Y100D01*
X1190Y161D02*
Y207D01*
Y108D02*
Y144D01*
Y57D02*
Y100D01*
X1189Y161D02*
Y207D01*
Y108D02*
Y144D01*
Y57D02*
Y100D01*
X1189Y161D02*
Y207D01*
Y107D02*
Y143D01*
Y57D02*
Y100D01*
X1189Y161D02*
Y207D01*
Y107D02*
Y143D01*
Y57D02*
Y100D01*
X1189Y160D02*
Y207D01*
Y108D02*
Y143D01*
Y57D02*
Y100D01*
X1188Y160D02*
Y207D01*
Y108D02*
Y143D01*
Y57D02*
Y100D01*
X1188Y161D02*
Y207D01*
Y109D02*
Y144D01*
Y57D02*
Y102D01*
X1188Y161D02*
Y207D01*
Y109D02*
Y144D01*
Y57D02*
Y102D01*
X1187Y161D02*
Y207D01*
Y109D02*
Y143D01*
Y57D02*
Y101D01*
X1187Y160D02*
Y207D01*
Y108D02*
Y142D01*
Y57D02*
Y102D01*
X1187Y160D02*
Y207D01*
Y108D02*
Y142D01*
Y57D02*
Y102D01*
X1186Y161D02*
Y207D01*
Y109D02*
Y143D01*
Y57D02*
Y101D01*
X1186Y161D02*
Y207D01*
Y109D02*
Y143D01*
Y57D02*
Y101D01*
X1186Y160D02*
Y207D01*
Y110D02*
Y142D01*
Y57D02*
Y103D01*
X1186Y160D02*
Y207D01*
Y110D02*
Y142D01*
Y57D02*
Y103D01*
X1185Y160D02*
Y207D01*
Y109D02*
Y142D01*
Y57D02*
Y101D01*
X1185Y160D02*
Y207D01*
Y109D02*
Y142D01*
Y57D02*
Y101D01*
X1185Y159D02*
Y207D01*
Y109D02*
Y141D01*
Y57D02*
Y102D01*
X1184Y159D02*
Y207D01*
Y109D02*
Y141D01*
Y57D02*
Y102D01*
X1184Y159D02*
Y207D01*
Y110D02*
Y141D01*
Y57D02*
Y103D01*
X1184Y159D02*
Y207D01*
Y110D02*
Y141D01*
Y57D02*
Y103D01*
X1184Y159D02*
Y207D01*
Y109D02*
Y141D01*
Y57D02*
Y104D01*
X1183Y159D02*
Y207D01*
Y109D02*
Y141D01*
Y57D02*
Y104D01*
X1183Y158D02*
Y207D01*
Y111D02*
Y141D01*
Y57D02*
Y103D01*
X1183Y159D02*
Y207D01*
Y109D02*
Y141D01*
Y57D02*
Y103D01*
X1182Y159D02*
Y207D01*
Y109D02*
Y141D01*
Y57D02*
Y103D01*
X1182Y157D02*
Y207D01*
Y111D02*
Y140D01*
Y57D02*
Y104D01*
X1182Y157D02*
Y207D01*
Y111D02*
Y140D01*
Y57D02*
Y104D01*
X1181Y157D02*
Y207D01*
Y112D02*
Y140D01*
Y57D02*
Y103D01*
X1181Y157D02*
Y207D01*
Y112D02*
Y140D01*
Y57D02*
Y103D01*
X1181Y158D02*
Y207D01*
Y112D02*
Y140D01*
Y57D02*
Y104D01*
X1181Y158D02*
Y207D01*
Y112D02*
Y140D01*
Y57D02*
Y104D01*
X1180Y157D02*
Y207D01*
Y112D02*
Y140D01*
Y57D02*
Y105D01*
X1180Y157D02*
Y207D01*
Y112D02*
Y140D01*
Y57D02*
Y105D01*
X1180Y157D02*
Y207D01*
Y112D02*
Y139D01*
Y57D02*
Y104D01*
X1179Y157D02*
Y207D01*
Y112D02*
Y139D01*
Y57D02*
Y104D01*
X1179Y157D02*
Y207D01*
Y112D02*
Y139D01*
Y57D02*
Y105D01*
X1179Y157D02*
Y207D01*
Y112D02*
Y139D01*
Y57D02*
Y105D01*
X1178Y156D02*
Y207D01*
Y113D02*
Y140D01*
Y57D02*
Y104D01*
X1178Y156D02*
Y207D01*
Y112D02*
Y139D01*
Y57D02*
Y105D01*
X1178Y156D02*
Y207D01*
Y112D02*
Y139D01*
Y57D02*
Y105D01*
X1178Y156D02*
Y207D01*
Y113D02*
Y139D01*
Y57D02*
Y105D01*
X1177Y156D02*
Y207D01*
Y113D02*
Y139D01*
Y57D02*
Y105D01*
X1177Y156D02*
Y207D01*
Y113D02*
Y138D01*
Y57D02*
Y105D01*
X1177Y156D02*
Y207D01*
Y113D02*
Y138D01*
Y57D02*
Y105D01*
X1176Y155D02*
Y207D01*
Y112D02*
Y139D01*
Y57D02*
Y106D01*
X1176Y155D02*
Y207D01*
Y112D02*
Y139D01*
Y57D02*
Y106D01*
X1176Y156D02*
Y207D01*
Y114D02*
Y138D01*
Y57D02*
Y106D01*
X1175Y156D02*
Y207D01*
Y114D02*
Y138D01*
Y57D02*
Y106D01*
X1175Y155D02*
Y207D01*
Y114D02*
Y139D01*
Y57D02*
Y107D01*
X1175Y155D02*
Y207D01*
Y114D02*
Y139D01*
Y57D02*
Y107D01*
X1174Y154D02*
Y207D01*
Y115D02*
Y137D01*
Y57D02*
Y106D01*
X1174Y155D02*
Y207D01*
Y115D02*
Y137D01*
Y57D02*
Y107D01*
X1174Y155D02*
Y207D01*
Y115D02*
Y137D01*
Y57D02*
Y107D01*
X1174Y154D02*
Y207D01*
Y115D02*
Y137D01*
Y57D02*
Y106D01*
X1173Y154D02*
Y207D01*
Y115D02*
Y137D01*
Y57D02*
Y106D01*
X1173Y155D02*
Y207D01*
Y116D02*
Y136D01*
Y57D02*
Y107D01*
X1173Y155D02*
Y207D01*
Y116D02*
Y136D01*
Y57D02*
Y107D01*
X1172Y154D02*
Y207D01*
Y115D02*
Y137D01*
Y57D02*
Y108D01*
X1172Y154D02*
Y207D01*
Y115D02*
Y137D01*
Y57D02*
Y108D01*
X1172Y152D02*
Y207D01*
Y116D02*
Y137D01*
Y57D02*
Y108D01*
X1171Y152D02*
Y207D01*
Y116D02*
Y137D01*
Y57D02*
Y108D01*
X1171Y154D02*
Y207D01*
Y116D02*
Y136D01*
Y57D02*
Y108D01*
X1171Y154D02*
Y207D01*
Y116D02*
Y136D01*
Y57D02*
Y108D01*
X1171Y154D02*
Y207D01*
Y117D02*
Y136D01*
Y57D02*
Y108D01*
X1170Y154D02*
Y207D01*
Y117D02*
Y136D01*
Y57D02*
Y108D01*
X1170Y153D02*
Y207D01*
Y116D02*
Y135D01*
Y57D02*
Y109D01*
X1170Y152D02*
Y207D01*
Y116D02*
Y135D01*
Y57D02*
Y108D01*
X1169Y152D02*
Y207D01*
Y116D02*
Y135D01*
Y57D02*
Y108D01*
X1169Y153D02*
Y207D01*
Y117D02*
Y135D01*
Y57D02*
Y109D01*
X1169Y153D02*
Y207D01*
Y117D02*
Y135D01*
Y57D02*
Y109D01*
X1168Y152D02*
Y207D01*
Y117D02*
Y134D01*
Y57D02*
Y109D01*
X1168Y152D02*
Y207D01*
Y117D02*
Y134D01*
Y57D02*
Y109D01*
X1168Y151D02*
Y207D01*
Y117D02*
Y135D01*
Y57D02*
Y109D01*
X1168Y151D02*
Y207D01*
Y117D02*
Y135D01*
Y57D02*
Y109D01*
X1167Y152D02*
Y207D01*
Y117D02*
Y134D01*
Y57D02*
Y111D01*
X1167Y152D02*
Y207D01*
Y117D02*
Y134D01*
Y57D02*
Y111D01*
X1167Y152D02*
Y207D01*
Y118D02*
Y134D01*
Y57D02*
Y109D01*
X1166Y152D02*
Y207D01*
Y118D02*
Y134D01*
Y57D02*
Y109D01*
X1166Y152D02*
Y207D01*
Y117D02*
Y133D01*
Y57D02*
Y110D01*
X1166Y152D02*
Y207D01*
Y117D02*
Y133D01*
Y57D02*
Y110D01*
X1166Y152D02*
Y207D01*
Y118D02*
Y134D01*
Y57D02*
Y110D01*
X1165Y152D02*
Y207D01*
Y118D02*
Y134D01*
Y57D02*
Y112D01*
X1165Y152D02*
Y207D01*
Y118D02*
Y134D01*
Y57D02*
Y112D01*
X1165Y151D02*
Y207D01*
Y119D02*
Y133D01*
Y57D02*
Y110D01*
X1164Y151D02*
Y207D01*
Y119D02*
Y133D01*
Y57D02*
Y110D01*
X1164Y150D02*
Y207D01*
Y118D02*
Y133D01*
Y57D02*
Y112D01*
X1164Y150D02*
Y207D01*
Y118D02*
Y133D01*
Y57D02*
Y112D01*
X1163Y150D02*
Y207D01*
Y119D02*
Y132D01*
Y57D02*
Y112D01*
X1163Y150D02*
Y207D01*
Y119D02*
Y132D01*
Y57D02*
Y112D01*
X1163Y150D02*
Y207D01*
Y119D02*
Y132D01*
Y57D02*
Y112D01*
X1163Y150D02*
Y207D01*
Y119D02*
Y132D01*
Y57D02*
Y112D01*
X1162Y150D02*
Y207D01*
Y120D02*
Y133D01*
Y57D02*
Y112D01*
X1162Y150D02*
Y207D01*
Y120D02*
Y133D01*
Y57D02*
Y112D01*
X1162Y150D02*
Y207D01*
Y120D02*
Y132D01*
Y57D02*
Y112D01*
X1161Y150D02*
Y207D01*
Y120D02*
Y132D01*
Y57D02*
Y112D01*
X1161Y148D02*
Y207D01*
Y121D02*
Y132D01*
Y57D02*
Y112D01*
X1161Y149D02*
Y207D01*
Y120D02*
Y131D01*
Y57D02*
Y112D01*
X1160Y149D02*
Y207D01*
Y120D02*
Y131D01*
Y57D02*
Y112D01*
X1160Y148D02*
Y207D01*
Y121D02*
Y132D01*
Y57D02*
Y112D01*
X1160Y148D02*
Y207D01*
Y121D02*
Y132D01*
Y57D02*
Y112D01*
X1160Y148D02*
Y207D01*
Y121D02*
Y131D01*
Y57D02*
Y113D01*
X1159Y148D02*
Y207D01*
Y121D02*
Y131D01*
Y57D02*
Y113D01*
X1159Y148D02*
Y207D01*
Y121D02*
Y131D01*
Y57D02*
Y113D01*
X1159Y148D02*
Y207D01*
Y121D02*
Y131D01*
Y57D02*
Y113D01*
X1158Y148D02*
Y207D01*
Y121D02*
Y131D01*
Y57D02*
Y114D01*
X1158Y148D02*
Y207D01*
Y121D02*
Y131D01*
Y57D02*
Y114D01*
X1158Y147D02*
Y207D01*
Y122D02*
Y130D01*
Y57D02*
Y113D01*
X1157Y147D02*
Y207D01*
Y122D02*
Y130D01*
Y57D02*
Y113D01*
X1157Y148D02*
Y207D01*
Y122D02*
Y130D01*
Y57D02*
Y114D01*
X1157Y148D02*
Y207D01*
Y122D02*
Y131D01*
Y57D02*
Y114D01*
X1156Y148D02*
Y207D01*
Y122D02*
Y131D01*
Y57D02*
Y114D01*
X1156Y147D02*
Y207D01*
Y122D02*
Y130D01*
Y57D02*
Y114D01*
X1156Y147D02*
Y207D01*
Y122D02*
Y130D01*
Y57D02*
Y114D01*
X1156Y147D02*
Y207D01*
Y123D02*
Y130D01*
Y57D02*
Y116D01*
X1155Y147D02*
Y207D01*
Y123D02*
Y130D01*
Y57D02*
Y116D01*
X1155Y147D02*
Y207D01*
Y122D02*
Y130D01*
Y57D02*
Y115D01*
X1155Y147D02*
Y207D01*
Y122D02*
Y130D01*
Y57D02*
Y115D01*
X1154Y147D02*
Y207D01*
Y123D02*
Y129D01*
Y57D02*
Y117D01*
X1154Y147D02*
Y207D01*
Y123D02*
Y129D01*
Y57D02*
Y117D01*
X1154Y146D02*
Y207D01*
Y122D02*
Y128D01*
Y57D02*
Y117D01*
X1153Y146D02*
Y207D01*
Y122D02*
Y128D01*
Y57D02*
Y117D01*
X1153Y146D02*
Y207D01*
Y122D02*
Y129D01*
Y57D02*
Y116D01*
X1153Y146D02*
Y207D01*
Y122D02*
Y129D01*
Y57D02*
Y116D01*
X1153Y146D02*
Y207D01*
Y124D02*
Y128D01*
Y57D02*
Y117D01*
X1152Y146D02*
Y207D01*
Y123D02*
Y128D01*
Y57D02*
Y116D01*
X1152Y146D02*
Y207D01*
Y123D02*
Y128D01*
Y57D02*
Y116D01*
X1152Y143D02*
Y207D01*
Y124D02*
Y129D01*
Y57D02*
Y117D01*
X1151Y143D02*
Y207D01*
Y124D02*
Y129D01*
Y57D02*
Y117D01*
X1151Y146D02*
Y207D01*
Y123D02*
Y127D01*
Y57D02*
Y117D01*
X1151Y146D02*
Y207D01*
Y123D02*
Y127D01*
Y57D02*
Y117D01*
X1151Y145D02*
Y207D01*
Y124D02*
Y128D01*
Y57D02*
Y117D01*
X1150Y145D02*
Y207D01*
Y124D02*
Y128D01*
Y57D02*
Y117D01*
X1150Y145D02*
Y207D01*
Y125D02*
Y127D01*
Y57D02*
Y117D01*
X1150Y145D02*
Y207D01*
Y125D02*
Y127D01*
Y57D02*
Y117D01*
X1149Y145D02*
Y207D01*
Y125D02*
Y128D01*
Y57D02*
Y117D01*
X1149Y145D02*
Y207D01*
Y125D02*
Y128D01*
Y57D02*
Y117D01*
X1149Y144D02*
Y207D01*
Y125D02*
Y128D01*
Y57D02*
Y117D01*
X1148Y144D02*
Y207D01*
Y125D02*
Y128D01*
Y57D02*
Y117D01*
X1148Y145D02*
Y207D01*
Y57D02*
Y118D01*
X1148Y143D02*
Y207D01*
Y57D02*
Y118D01*
X1148Y143D02*
Y207D01*
Y57D02*
Y118D01*
X1147Y144D02*
Y207D01*
Y57D02*
Y118D01*
X1147Y144D02*
Y207D01*
Y57D02*
Y118D01*
X1147Y143D02*
Y207D01*
Y57D02*
Y118D01*
X1146Y143D02*
Y207D01*
Y57D02*
Y118D01*
X1146Y143D02*
Y207D01*
Y57D02*
Y119D01*
X1146Y143D02*
Y207D01*
Y57D02*
Y119D01*
X1145Y142D02*
Y207D01*
Y57D02*
Y119D01*
X1145Y142D02*
Y207D01*
Y57D02*
Y119D01*
X1145Y142D02*
Y207D01*
Y57D02*
Y119D01*
X1145Y142D02*
Y207D01*
Y57D02*
Y119D01*
X1144Y143D02*
Y207D01*
Y57D02*
Y121D01*
X1144Y143D02*
Y207D01*
Y57D02*
Y121D01*
X1144Y142D02*
Y207D01*
Y57D02*
Y120D01*
X1143Y142D02*
Y207D01*
Y57D02*
Y121D01*
X1143Y142D02*
Y207D01*
Y57D02*
Y121D01*
X1143Y141D02*
Y207D01*
Y57D02*
Y120D01*
X1142Y141D02*
Y207D01*
Y57D02*
Y120D01*
X1142Y141D02*
Y207D01*
Y57D02*
Y121D01*
X1142Y141D02*
Y207D01*
Y57D02*
Y121D01*
X1141Y142D02*
Y207D01*
Y57D02*
Y121D01*
X1141Y142D02*
Y207D01*
Y57D02*
Y121D01*
X1141Y141D02*
Y207D01*
Y57D02*
Y122D01*
X1141Y141D02*
Y207D01*
Y57D02*
Y122D01*
X1140Y141D02*
Y207D01*
Y57D02*
Y122D01*
X1140Y141D02*
Y207D01*
Y57D02*
Y122D01*
X1140Y141D02*
Y207D01*
Y57D02*
Y121D01*
X1139Y141D02*
Y207D01*
Y57D02*
Y123D01*
X1139Y141D02*
Y207D01*
Y57D02*
Y123D01*
X1139Y140D02*
Y207D01*
Y57D02*
Y122D01*
X1138Y140D02*
Y207D01*
Y57D02*
Y122D01*
X1138Y140D02*
Y207D01*
Y57D02*
Y122D01*
X1138Y140D02*
Y207D01*
Y57D02*
Y122D01*
X1138Y140D02*
Y207D01*
Y57D02*
Y122D01*
X1137Y140D02*
Y207D01*
Y57D02*
Y122D01*
X1137Y139D02*
Y207D01*
Y57D02*
Y122D01*
X1137Y139D02*
Y207D01*
Y57D02*
Y122D01*
X1136Y140D02*
Y207D01*
Y57D02*
Y123D01*
X1136Y140D02*
Y207D01*
Y57D02*
Y123D01*
X1136Y138D02*
Y207D01*
Y57D02*
Y123D01*
X1135Y138D02*
Y207D01*
Y57D02*
Y123D01*
X1135Y139D02*
Y207D01*
Y57D02*
Y124D01*
X1135Y139D02*
Y207D01*
Y57D02*
Y123D01*
X1135Y139D02*
Y207D01*
Y57D02*
Y123D01*
X1134Y139D02*
Y207D01*
Y57D02*
Y124D01*
X1134Y139D02*
Y207D01*
Y57D02*
Y124D01*
X1134Y138D02*
Y207D01*
Y57D02*
Y124D01*
X1133Y138D02*
Y207D01*
Y57D02*
Y124D01*
X1133Y137D02*
Y207D01*
Y57D02*
Y124D01*
X1133Y137D02*
Y207D01*
Y57D02*
Y124D01*
X1133Y138D02*
Y207D01*
Y57D02*
Y124D01*
X1132Y138D02*
Y207D01*
Y57D02*
Y124D01*
X1132Y137D02*
Y207D01*
Y57D02*
Y125D01*
X1132Y137D02*
Y207D01*
Y57D02*
Y125D01*
X1131Y137D02*
Y207D01*
Y57D02*
Y125D01*
X1131Y137D02*
Y207D01*
Y57D02*
Y125D01*
X1131Y137D02*
Y207D01*
Y57D02*
Y125D01*
X1130Y137D02*
Y207D01*
Y57D02*
Y125D01*
X1130Y137D02*
Y207D01*
Y57D02*
Y125D01*
X1130Y137D02*
Y207D01*
Y57D02*
Y127D01*
X1130Y137D02*
Y207D01*
Y57D02*
Y127D01*
X1129Y136D02*
Y207D01*
Y57D02*
Y125D01*
X1129Y136D02*
Y207D01*
Y57D02*
Y125D01*
X1129Y135D02*
Y207D01*
Y57D02*
Y127D01*
X1128Y135D02*
Y207D01*
Y57D02*
Y127D01*
X1128Y135D02*
Y207D01*
Y57D02*
Y126D01*
X1128Y135D02*
Y207D01*
Y57D02*
Y126D01*
X1127Y136D02*
Y207D01*
Y57D02*
Y127D01*
X1127Y136D02*
Y207D01*
Y57D02*
Y127D01*
X1127Y134D02*
Y207D01*
Y57D02*
Y127D01*
X1127Y134D02*
Y207D01*
Y57D02*
Y127D01*
X1126Y135D02*
Y207D01*
Y57D02*
Y127D01*
X1126Y134D02*
Y207D01*
Y57D02*
Y128D01*
X1126Y134D02*
Y207D01*
Y57D02*
Y128D01*
X1125Y135D02*
Y207D01*
Y57D02*
Y130D01*
X1125Y135D02*
Y207D01*
Y57D02*
Y130D01*
X1125Y134D02*
Y207D01*
Y57D02*
Y128D01*
X1124Y134D02*
Y207D01*
Y57D02*
Y128D01*
X1124Y134D02*
Y207D01*
Y57D02*
Y128D01*
X1124Y134D02*
Y207D01*
Y57D02*
Y128D01*
X1123Y134D02*
Y207D01*
Y57D02*
Y129D01*
X1123Y134D02*
Y207D01*
Y57D02*
Y129D01*
X1123Y133D02*
Y207D01*
Y57D02*
Y130D01*
X1123Y133D02*
Y207D01*
Y57D02*
Y130D01*
X1122Y133D02*
Y207D01*
Y57D02*
Y129D01*
X1122Y133D02*
Y207D01*
Y57D02*
Y130D01*
X1122Y133D02*
Y207D01*
Y57D02*
Y130D01*
X1121Y133D02*
Y207D01*
Y57D02*
Y132D01*
X1121Y133D02*
Y207D01*
Y57D02*
Y132D01*
X1121Y133D02*
Y207D01*
Y57D02*
Y131D01*
X1120Y133D02*
Y207D01*
Y57D02*
Y131D01*
X1120Y57D02*
Y207D01*
X1120Y57D02*
Y207D01*
X1120Y57D02*
Y207D01*
X1119Y57D02*
Y207D01*
X1119Y57D02*
Y207D01*
X1119Y57D02*
Y207D01*
X1118Y57D02*
Y207D01*
X1118Y57D02*
Y207D01*
X1118Y57D02*
Y207D01*
X1117Y57D02*
Y207D01*
X1117Y57D02*
Y207D01*
X1117Y57D02*
Y207D01*
X1117Y57D02*
Y207D01*
X1116Y57D02*
Y207D01*
X1116Y57D02*
Y207D01*
X1116Y57D02*
Y207D01*
X1115Y57D02*
Y207D01*
X1115Y57D02*
Y207D01*
X1115Y57D02*
Y207D01*
X1115Y57D02*
Y207D01*
X1114Y57D02*
Y207D01*
X1114Y57D02*
Y207D01*
X1114Y57D02*
Y207D01*
X1113Y57D02*
Y207D01*
X1113Y57D02*
Y207D01*
X1113Y57D02*
Y207D01*
X1112Y57D02*
Y207D01*
X1112Y57D02*
Y207D01*
X1112Y57D02*
Y207D01*
X1112Y57D02*
Y207D01*
X1111Y57D02*
Y207D01*
X1111Y57D02*
Y207D01*
X1111Y57D02*
Y207D01*
X1110Y57D02*
Y207D01*
X1110Y57D02*
Y207D01*
X1110Y57D02*
Y207D01*
X1109Y57D02*
Y207D01*
X1109Y57D02*
Y207D01*
X1109Y57D02*
Y207D01*
X1109Y57D02*
Y207D01*
X1108Y57D02*
Y207D01*
X1108Y57D02*
Y207D01*
X1108Y57D02*
Y207D01*
X1107Y57D02*
Y207D01*
X1107Y57D02*
Y207D01*
D28*
X625Y820D02*
X650D01*
X570D02*
X595D01*
X625Y790D02*
X650D01*
X570D02*
X595D01*
X570D02*
Y820D01*
X650Y790D02*
Y820D01*
X623Y75D02*
Y121D01*
Y221D02*
Y264D01*
X426Y75D02*
Y93D01*
Y248D02*
Y264D01*
X623D01*
X426Y75D02*
X623D01*
M02*
