%FSLAX23Y23*%
%MOIN*%
G70*
G01*
G75*
G04 Layer_Color=2752767*
%ADD10C,0.004*%
%ADD11C,0.005*%
%ADD12C,0.007*%
D10*
X251Y711D02*
X319D01*
X251Y749D02*
X319D01*
Y711D02*
Y749D01*
X251Y711D02*
Y749D01*
X861Y556D02*
Y624D01*
X899Y556D02*
Y624D01*
X861Y556D02*
X899D01*
X861Y624D02*
X899D01*
X411Y711D02*
X479D01*
X411Y749D02*
X479D01*
Y711D02*
Y749D01*
X411Y711D02*
Y749D01*
X716Y349D02*
X784D01*
X716Y311D02*
X784D01*
X716D02*
Y349D01*
X784Y311D02*
Y349D01*
X251Y791D02*
X319D01*
X251Y829D02*
X319D01*
Y791D02*
Y829D01*
X251Y791D02*
Y829D01*
X409Y516D02*
Y584D01*
X371Y516D02*
Y584D01*
X409D01*
X371Y516D02*
X409D01*
X866Y416D02*
Y484D01*
X904Y416D02*
Y484D01*
X866Y416D02*
X904D01*
X866Y484D02*
X904D01*
X276Y211D02*
X344D01*
X276Y249D02*
X344D01*
Y211D02*
Y249D01*
X276Y211D02*
Y249D01*
Y131D02*
X344D01*
X276Y169D02*
X344D01*
Y131D02*
Y169D01*
X276Y131D02*
Y169D01*
X657Y282D02*
Y388D01*
X523Y282D02*
Y388D01*
Y282D02*
X657D01*
X523Y388D02*
X657D01*
X707Y667D02*
Y773D01*
X573Y667D02*
Y773D01*
Y667D02*
X707D01*
X573Y773D02*
X707D01*
X285Y711D02*
Y749D01*
X266Y730D02*
X304D01*
X238Y708D02*
X332D01*
X238Y752D02*
X332D01*
Y708D02*
Y752D01*
X238Y708D02*
Y752D01*
X861Y590D02*
X899D01*
X880Y571D02*
Y609D01*
X858Y543D02*
Y637D01*
X902Y543D02*
Y637D01*
X858Y543D02*
X902D01*
X858Y637D02*
X902D01*
X445Y711D02*
Y749D01*
X426Y730D02*
X464D01*
X398Y708D02*
X492D01*
X398Y752D02*
X492D01*
Y708D02*
Y752D01*
X398Y708D02*
Y752D01*
X750Y311D02*
Y349D01*
X731Y330D02*
X769D01*
X703Y352D02*
X797D01*
X703Y308D02*
X797D01*
X703D02*
Y352D01*
X797Y308D02*
Y352D01*
X285Y791D02*
Y829D01*
X266Y810D02*
X304D01*
X238Y788D02*
X332D01*
X238Y832D02*
X332D01*
Y788D02*
Y832D01*
X238Y788D02*
Y832D01*
X371Y550D02*
X409D01*
X390Y531D02*
Y569D01*
X412Y503D02*
Y597D01*
X368Y503D02*
Y597D01*
X412D01*
X368Y503D02*
X412D01*
X866Y450D02*
X904D01*
X885Y431D02*
Y469D01*
X863Y403D02*
Y497D01*
X907Y403D02*
Y497D01*
X863Y403D02*
X907D01*
X863Y497D02*
X907D01*
X310Y211D02*
Y249D01*
X291Y230D02*
X329D01*
X263Y208D02*
X357D01*
X263Y252D02*
X357D01*
Y208D02*
Y252D01*
X263Y208D02*
Y252D01*
X310Y131D02*
Y169D01*
X291Y150D02*
X329D01*
X263Y128D02*
X357D01*
X263Y172D02*
X357D01*
Y128D02*
Y172D01*
X263Y128D02*
Y172D01*
X669Y280D02*
Y390D01*
X511Y280D02*
Y390D01*
Y280D02*
X669D01*
X511Y390D02*
X669D01*
X570Y335D02*
X610D01*
X590Y315D02*
Y355D01*
X719Y665D02*
Y775D01*
X561Y665D02*
Y775D01*
Y665D02*
X719D01*
X561Y775D02*
X719D01*
X620Y720D02*
X660D01*
X640Y700D02*
Y740D01*
D11*
X385Y305D02*
Y345D01*
X425D01*
Y305D01*
X385D01*
X1005Y280D02*
Y320D01*
X1045D01*
Y280D01*
X1005D01*
X225Y290D02*
Y330D01*
X265D01*
Y290D01*
X225D01*
X370Y775D02*
Y815D01*
X410D01*
Y775D01*
X370D01*
X425Y590D02*
Y630D01*
X465D01*
Y590D01*
X425D01*
X805Y550D02*
Y590D01*
X845D01*
Y550D01*
X805D01*
X715Y380D02*
Y420D01*
X755D01*
Y380D01*
X715D01*
X400Y410D02*
Y450D01*
X440D01*
Y410D01*
X400D01*
X845Y135D02*
X825Y175D01*
X865D01*
X845Y135D01*
Y780D02*
X825Y820D01*
X865D01*
X845Y780D01*
D12*
X802Y218D02*
G03*
X802Y218I-20J0D01*
G01*
X928D02*
G03*
X928Y218I-20J0D01*
G01*
X865Y244D02*
G03*
X865Y244I-20J0D01*
G01*
X776Y155D02*
G03*
X776Y155I-20J0D01*
G01*
X802Y92D02*
G03*
X802Y92I-20J0D01*
G01*
X865Y66D02*
G03*
X865Y66I-20J0D01*
G01*
X928Y92D02*
G03*
X928Y92I-20J0D01*
G01*
X954Y155D02*
G03*
X954Y155I-20J0D01*
G01*
Y800D02*
G03*
X954Y800I-20J0D01*
G01*
X928Y737D02*
G03*
X928Y737I-20J0D01*
G01*
X865Y711D02*
G03*
X865Y711I-20J0D01*
G01*
X802Y737D02*
G03*
X802Y737I-20J0D01*
G01*
X776Y800D02*
G03*
X776Y800I-20J0D01*
G01*
X865Y889D02*
G03*
X865Y889I-20J0D01*
G01*
X928Y863D02*
G03*
X928Y863I-20J0D01*
G01*
X802D02*
G03*
X802Y863I-20J0D01*
G01*
M02*
