%FSLAX23Y23*%
%MOIN*%
G70*
G01*
G75*
%ADD10C,0.004*%
%ADD11C,0.005*%
%ADD12C,0.007*%
D10*
X251Y711D02*
X319D01*
X251Y749D02*
X319D01*
Y711D02*
Y749D01*
X251Y711D02*
Y749D01*
X861Y556D02*
Y624D01*
X899Y556D02*
Y624D01*
X861Y556D02*
X899D01*
X861Y624D02*
X899D01*
X411Y711D02*
X479D01*
X411Y749D02*
X479D01*
Y711D02*
Y749D01*
X411Y711D02*
Y749D01*
X716Y349D02*
X784D01*
X716Y311D02*
X784D01*
X716D02*
Y349D01*
X784Y311D02*
Y349D01*
X251Y791D02*
X319D01*
X251Y829D02*
X319D01*
Y791D02*
Y829D01*
X251Y791D02*
Y829D01*
X409Y516D02*
Y584D01*
X371Y516D02*
Y584D01*
X409D01*
X371Y516D02*
X409D01*
X866Y416D02*
Y484D01*
X904Y416D02*
Y484D01*
X866Y416D02*
X904D01*
X866Y484D02*
X904D01*
X276Y211D02*
X344D01*
X276Y249D02*
X344D01*
Y211D02*
Y249D01*
X276Y211D02*
Y249D01*
Y131D02*
X344D01*
X276Y169D02*
X344D01*
Y131D02*
Y169D01*
X276Y131D02*
Y169D01*
X657Y282D02*
Y388D01*
X523Y282D02*
Y388D01*
Y282D02*
X657D01*
X523Y388D02*
X657D01*
X707Y667D02*
Y773D01*
X573Y667D02*
Y773D01*
Y667D02*
X707D01*
X573Y773D02*
X707D01*
X285Y711D02*
Y749D01*
X266Y730D02*
X304D01*
X238Y708D02*
X332D01*
X238Y752D02*
X332D01*
Y708D02*
Y752D01*
X238Y708D02*
Y752D01*
X861Y590D02*
X899D01*
X880Y571D02*
Y609D01*
X858Y543D02*
Y637D01*
X902Y543D02*
Y637D01*
X858Y543D02*
X902D01*
X858Y637D02*
X902D01*
X445Y711D02*
Y749D01*
X426Y730D02*
X464D01*
X398Y708D02*
X492D01*
X398Y752D02*
X492D01*
Y708D02*
Y752D01*
X398Y708D02*
Y752D01*
X750Y311D02*
Y349D01*
X731Y330D02*
X769D01*
X703Y352D02*
X797D01*
X703Y308D02*
X797D01*
X703D02*
Y352D01*
X797Y308D02*
Y352D01*
X285Y791D02*
Y829D01*
X266Y810D02*
X304D01*
X238Y788D02*
X332D01*
X238Y832D02*
X332D01*
Y788D02*
Y832D01*
X238Y788D02*
Y832D01*
X371Y550D02*
X409D01*
X390Y531D02*
Y569D01*
X412Y503D02*
Y597D01*
X368Y503D02*
Y597D01*
X412D01*
X368Y503D02*
X412D01*
X866Y450D02*
X904D01*
X885Y431D02*
Y469D01*
X863Y403D02*
Y497D01*
X907Y403D02*
Y497D01*
X863Y403D02*
X907D01*
X863Y497D02*
X907D01*
X310Y211D02*
Y249D01*
X291Y230D02*
X329D01*
X263Y208D02*
X357D01*
X263Y252D02*
X357D01*
Y208D02*
Y252D01*
X263Y208D02*
Y252D01*
X310Y131D02*
Y169D01*
X291Y150D02*
X329D01*
X263Y128D02*
X357D01*
X263Y172D02*
X357D01*
Y128D02*
Y172D01*
X263Y128D02*
Y172D01*
X669Y280D02*
Y390D01*
X511Y280D02*
Y390D01*
Y280D02*
X669D01*
X511Y390D02*
X669D01*
X570Y335D02*
X610D01*
X590Y315D02*
Y355D01*
X719Y665D02*
Y775D01*
X561Y665D02*
Y775D01*
Y665D02*
X719D01*
X561Y775D02*
X719D01*
X620Y720D02*
X660D01*
X640Y700D02*
Y740D01*
D11*
X391Y325D02*
X419D01*
X405Y311D02*
Y339D01*
X1011Y300D02*
X1039D01*
X1025Y286D02*
Y314D01*
X231Y310D02*
X259D01*
X245Y296D02*
Y324D01*
X376Y795D02*
X404D01*
X390Y781D02*
Y809D01*
X431Y610D02*
X459D01*
X445Y596D02*
Y624D01*
X811Y570D02*
X839D01*
X825Y556D02*
Y584D01*
X721Y400D02*
X749D01*
X735Y386D02*
Y414D01*
X406Y430D02*
X434D01*
X420Y416D02*
Y444D01*
X773Y218D02*
X792D01*
X782Y208D02*
Y227D01*
X898Y218D02*
X917D01*
X908Y208D02*
Y227D01*
X835Y244D02*
X855D01*
X845Y234D02*
Y253D01*
X747Y155D02*
X766D01*
X756Y145D02*
Y165D01*
X773Y92D02*
X792D01*
X782Y83D02*
Y102D01*
X835Y66D02*
X855D01*
X845Y57D02*
Y76D01*
X898Y92D02*
X917D01*
X908Y83D02*
Y102D01*
X924Y155D02*
X943D01*
X934Y145D02*
Y165D01*
X786Y155D02*
X904D01*
X845Y96D02*
Y214D01*
X786Y800D02*
X904D01*
X845Y741D02*
Y859D01*
X924Y800D02*
X943D01*
X934Y790D02*
Y810D01*
X898Y737D02*
X917D01*
X908Y728D02*
Y747D01*
X835Y711D02*
X855D01*
X845Y702D02*
Y721D01*
X773Y737D02*
X792D01*
X782Y728D02*
Y747D01*
X747Y800D02*
X766D01*
X756Y790D02*
Y810D01*
X835Y889D02*
X855D01*
X845Y879D02*
Y898D01*
X898Y863D02*
X917D01*
X908Y853D02*
Y872D01*
X773Y863D02*
X792D01*
X782Y853D02*
Y872D01*
M02*
