M48
;Layer_Color=9474304
;FILE_FORMAT=2:3
INCH,TZ
;TYPE=PLATED
T1F00S00C0.020
T2F00S00C0.028
T3F00S00C0.118
%
T01
X782Y92
X756Y155
X782Y218
X845Y244
X908Y218
X934Y155
X908Y92
X845Y66
Y711
X908Y737
X934Y800
X908Y863
X845Y889
X782Y863
X756Y800
X782Y737
T02
X245Y310
X405Y325
X420Y430
X735Y400
X1025Y300
X825Y570
X445Y610
X390Y795
T03
X845Y155
Y800
M30
