%FSLAX23Y23*%
%MOIN*%
G70*
G01*
G75*
G04 Layer_Physical_Order=1*
G04 Layer_Color=255*
%ADD10R,0.118X0.039*%
%ADD11R,0.118X0.059*%
%ADD12R,0.025X0.020*%
%ADD13R,0.079X0.079*%
%ADD14R,0.079X0.051*%
%ADD15O,0.055X0.024*%
%ADD16R,0.055X0.024*%
%ADD17R,0.031X0.035*%
%ADD18R,0.035X0.031*%
%ADD19R,0.043X0.102*%
%ADD20C,0.010*%
%ADD21R,0.105X0.150*%
%ADD22C,0.050*%
%ADD23C,0.039*%
%ADD24C,0.236*%
G36*
X1370Y995D02*
X1360Y985D01*
Y-50D01*
X-50D01*
X-55Y-45D01*
X-50Y1000D01*
X1368D01*
X1370Y995D01*
D02*
G37*
%LPC*%
G36*
X1320Y969D02*
X5D01*
X-5Y965D01*
X-9Y955D01*
Y730D01*
X-5Y720D01*
X5Y716D01*
X156D01*
Y234D01*
X0D01*
X-10Y230D01*
X-14Y220D01*
Y0D01*
X-10Y-10D01*
X0Y-14D01*
X1320D01*
X1330Y-10D01*
X1334Y0D01*
Y955D01*
X1330Y965D01*
X1320Y969D01*
D02*
G37*
%LPD*%
G36*
X1306Y678D02*
X1306D01*
X1304D01*
X1303Y678D01*
X1303Y678D01*
Y678D01*
X1170D01*
Y603D01*
X1303D01*
X1303Y603D01*
Y603D01*
X1304Y603D01*
X1306Y601D01*
Y347D01*
X1306D01*
X1304D01*
X1303Y347D01*
X1303Y347D01*
Y347D01*
X1170D01*
Y272D01*
X1303D01*
X1303Y272D01*
Y272D01*
X1304Y272D01*
X1306Y270D01*
Y14D01*
X14D01*
Y206D01*
X170D01*
X180Y210D01*
X184Y220D01*
Y345D01*
X189Y347D01*
X214Y321D01*
X209Y310D01*
X220Y285D01*
X245Y274D01*
X256Y279D01*
X269Y267D01*
Y256D01*
X259D01*
Y204D01*
X306D01*
Y256D01*
X296D01*
Y273D01*
X292Y282D01*
X276Y299D01*
X281Y310D01*
X270Y335D01*
X245Y346D01*
X234Y341D01*
X204Y371D01*
Y391D01*
X205Y391D01*
X310D01*
X316Y394D01*
X319Y400D01*
Y550D01*
X316Y556D01*
X310Y559D01*
X269D01*
Y704D01*
X281D01*
Y756D01*
X269D01*
Y784D01*
X281D01*
Y836D01*
D01*
Y836D01*
X282Y836D01*
X289D01*
Y836D01*
X289D01*
Y784D01*
X319D01*
X321Y784D01*
X328Y781D01*
X360D01*
X365Y770D01*
X390Y759D01*
X415Y770D01*
X426Y795D01*
X415Y820D01*
X390Y831D01*
X379Y826D01*
X373Y831D01*
X375Y836D01*
X584D01*
X593Y827D01*
X591Y823D01*
X590D01*
Y810D01*
X609D01*
X610Y810D01*
X615Y806D01*
Y787D01*
X633D01*
X664Y757D01*
Y661D01*
X723D01*
Y661D01*
X723D01*
X727Y657D01*
Y636D01*
X725D01*
X710Y630D01*
X703Y615D01*
X710Y600D01*
X725Y594D01*
X756D01*
X771Y600D01*
X772Y601D01*
X790D01*
X800Y605D01*
X800Y605D01*
X800Y605D01*
X846Y651D01*
X919D01*
X984Y586D01*
X982Y581D01*
X973D01*
Y526D01*
X973D01*
Y523D01*
X968Y521D01*
X965Y520D01*
X915Y470D01*
X911Y472D01*
Y501D01*
X894D01*
Y539D01*
X906D01*
Y586D01*
X875D01*
X873Y591D01*
X876Y594D01*
X906D01*
Y641D01*
X854D01*
Y612D01*
X841Y599D01*
X825Y606D01*
X800Y595D01*
X789Y570D01*
X800Y545D01*
X825Y534D01*
X850Y545D01*
X850D01*
X850D01*
X854Y544D01*
Y539D01*
X866D01*
Y501D01*
X859D01*
Y454D01*
X908D01*
X908Y454D01*
Y454D01*
X911Y454D01*
X911Y453D01*
Y446D01*
X911D01*
Y446D01*
X859D01*
Y434D01*
X819D01*
Y454D01*
X815Y464D01*
X774Y505D01*
X778Y515D01*
X771Y530D01*
X756Y536D01*
X734D01*
X733Y540D01*
X736Y544D01*
X756D01*
X771Y550D01*
X778Y565D01*
X771Y580D01*
X756Y586D01*
X725D01*
X710Y580D01*
X703Y565D01*
X707Y555D01*
X633Y481D01*
X629Y471D01*
Y394D01*
X614D01*
Y276D01*
X673D01*
Y316D01*
X699D01*
Y304D01*
X736D01*
X738Y300D01*
X700Y262D01*
X696Y252D01*
Y194D01*
X655D01*
Y217D01*
X560D01*
Y122D01*
X655D01*
Y166D01*
X710D01*
X715Y168D01*
X718Y165D01*
X717Y155D01*
X726Y106D01*
X754Y64D01*
X796Y36D01*
X845Y27D01*
X894Y36D01*
X936Y64D01*
X964Y106D01*
X973Y155D01*
X964Y204D01*
X936Y246D01*
X894Y274D01*
X845Y283D01*
X796Y274D01*
X754Y246D01*
X728Y207D01*
X724Y209D01*
Y246D01*
X763Y285D01*
X799D01*
X808Y290D01*
X808Y290D01*
X808Y290D01*
X850Y331D01*
X910D01*
X920Y335D01*
X935Y350D01*
X939Y360D01*
Y454D01*
X968Y484D01*
X973Y482D01*
Y447D01*
X1107D01*
Y486D01*
X1140D01*
X1150Y490D01*
X1154Y500D01*
X1154Y500D01*
X1154Y500D01*
Y590D01*
X1150Y600D01*
X1140Y604D01*
X1006D01*
X935Y675D01*
X925Y679D01*
X899D01*
X898Y684D01*
X936Y709D01*
X964Y751D01*
X973Y800D01*
X964Y849D01*
X936Y891D01*
X894Y919D01*
X845Y928D01*
X796Y919D01*
X754Y891D01*
X726Y849D01*
X717Y800D01*
X720Y783D01*
X717Y779D01*
X681D01*
X655Y804D01*
Y823D01*
X637D01*
X600Y860D01*
X590Y864D01*
X230D01*
X223Y861D01*
X220Y860D01*
X180Y820D01*
X176Y810D01*
Y746D01*
X172Y743D01*
X170Y744D01*
X19D01*
Y941D01*
X1306D01*
Y678D01*
D02*
G37*
G36*
X859Y399D02*
X911D01*
D01*
X911D01*
X911Y398D01*
Y366D01*
X904Y359D01*
X844D01*
X834Y355D01*
X806Y326D01*
X801Y328D01*
Y334D01*
X815Y348D01*
X815Y348D01*
X815Y348D01*
X819Y357D01*
Y406D01*
X859D01*
Y399D01*
D02*
G37*
G36*
X706Y509D02*
X710Y500D01*
X725Y494D01*
X745D01*
X748Y490D01*
X747Y486D01*
X725D01*
X710Y480D01*
X703Y465D01*
X710Y450D01*
X721Y445D01*
Y430D01*
X710Y425D01*
X699Y400D01*
X710Y375D01*
X735Y364D01*
X760Y375D01*
X771Y400D01*
X760Y425D01*
X749Y430D01*
Y444D01*
X756D01*
X771Y450D01*
X775Y459D01*
X780Y460D01*
X791Y448D01*
Y420D01*
Y363D01*
X783Y356D01*
X754D01*
Y313D01*
X750Y311D01*
X746Y313D01*
Y356D01*
X699D01*
Y344D01*
X673D01*
Y394D01*
X657D01*
Y466D01*
X701Y510D01*
X706Y509D01*
D02*
G37*
G36*
X234Y828D02*
Y784D01*
X241D01*
Y756D01*
X234D01*
Y704D01*
X241D01*
Y559D01*
X205D01*
X204Y559D01*
Y804D01*
X229Y829D01*
X234Y828D01*
D02*
G37*
G36*
X754Y709D02*
X796Y681D01*
X825Y676D01*
X826Y671D01*
X784Y629D01*
X772D01*
X771Y630D01*
X756Y636D01*
X754D01*
Y673D01*
X750Y683D01*
X723Y710D01*
Y748D01*
X727Y749D01*
X754Y709D01*
D02*
G37*
%LPC*%
G36*
X497Y158D02*
X455D01*
Y129D01*
X497D01*
Y158D01*
D02*
G37*
G36*
X1020Y295D02*
X991D01*
X1000Y275D01*
X1020Y266D01*
Y295D01*
D02*
G37*
G36*
X361Y176D02*
X343D01*
Y155D01*
X361D01*
Y176D01*
D02*
G37*
G36*
X605Y800D02*
X565D01*
Y787D01*
X571D01*
Y779D01*
X557D01*
Y725D01*
X616D01*
Y779D01*
X599D01*
Y787D01*
X605D01*
Y800D01*
D02*
G37*
G36*
X580Y823D02*
X565D01*
Y810D01*
X580D01*
Y823D01*
D02*
G37*
G36*
X333Y145D02*
X314D01*
Y124D01*
X333D01*
Y145D01*
D02*
G37*
G36*
X497Y119D02*
X455D01*
Y91D01*
X497D01*
Y119D01*
D02*
G37*
G36*
X1107Y424D02*
X1045D01*
Y401D01*
X1107D01*
Y424D01*
D02*
G37*
G36*
X616Y715D02*
X557D01*
Y661D01*
X571D01*
Y501D01*
X550Y480D01*
X536Y486D01*
X525D01*
Y465D01*
Y444D01*
X536D01*
X551Y450D01*
X551Y451D01*
X555D01*
X565Y455D01*
X595Y485D01*
X599Y495D01*
Y661D01*
X616D01*
Y715D01*
D02*
G37*
G36*
X536Y536D02*
X504D01*
X489Y530D01*
X483Y515D01*
X484Y513D01*
X431Y461D01*
X420Y466D01*
X395Y455D01*
X384Y430D01*
X395Y405D01*
X400Y403D01*
X401Y398D01*
X330Y326D01*
X326Y317D01*
Y256D01*
X314D01*
Y204D01*
X314Y204D01*
X314D01*
X315Y202D01*
X288Y176D01*
X259D01*
Y124D01*
X306D01*
Y154D01*
X309Y157D01*
X314Y155D01*
Y155D01*
X333D01*
Y180D01*
X332Y180D01*
X347Y195D01*
X351Y204D01*
X361D01*
Y256D01*
X354D01*
Y311D01*
X366Y323D01*
X371Y322D01*
X380Y300D01*
X382Y299D01*
Y183D01*
X382Y183D01*
X382Y183D01*
X386Y173D01*
X403Y156D01*
Y138D01*
X369D01*
X362Y145D01*
X343D01*
Y124D01*
X343D01*
X353Y115D01*
X363Y111D01*
X403D01*
Y91D01*
X445D01*
Y124D01*
Y158D01*
X441D01*
X422Y177D01*
X424Y182D01*
X497D01*
Y243D01*
X531Y276D01*
X566D01*
Y394D01*
X507D01*
Y292D01*
X464Y248D01*
X410D01*
Y291D01*
X430Y300D01*
X439Y320D01*
X405D01*
Y330D01*
X439D01*
X430Y350D01*
X430Y350D01*
X430D01*
X429Y355D01*
X515Y440D01*
Y465D01*
Y486D01*
X504D01*
X502Y485D01*
X499Y490D01*
X504Y494D01*
X504Y494D01*
X536D01*
X551Y500D01*
X557Y515D01*
X551Y530D01*
X536Y536D01*
D02*
G37*
G36*
X1035Y424D02*
X973D01*
Y401D01*
X1035D01*
Y424D01*
D02*
G37*
G36*
X1059Y295D02*
X1030D01*
Y266D01*
X1050Y275D01*
X1059Y295D01*
D02*
G37*
G36*
X1107Y391D02*
X973D01*
Y369D01*
X1011D01*
Y330D01*
X1000Y325D01*
X991Y305D01*
X1059D01*
X1050Y325D01*
X1039Y330D01*
Y369D01*
X1107D01*
Y391D01*
D02*
G37*
G36*
X496Y756D02*
X449D01*
Y704D01*
X478D01*
X481Y702D01*
Y640D01*
X481Y640D01*
X481Y640D01*
X483Y635D01*
X484Y633D01*
X481Y629D01*
X473D01*
X470Y635D01*
X445Y646D01*
X420Y635D01*
X409Y610D01*
X411Y605D01*
X409Y601D01*
X404Y603D01*
Y697D01*
X412Y704D01*
X441D01*
Y756D01*
X394D01*
Y726D01*
X380Y712D01*
X376Y703D01*
Y601D01*
X364D01*
Y574D01*
X360Y572D01*
X326Y606D01*
Y704D01*
X336D01*
Y756D01*
X289D01*
Y704D01*
X299D01*
Y600D01*
X303Y590D01*
X364Y528D01*
Y499D01*
X416D01*
Y546D01*
X386D01*
X383Y549D01*
X385Y554D01*
X396D01*
X403Y551D01*
X489D01*
X489Y550D01*
X504Y544D01*
X536D01*
X551Y550D01*
X557Y565D01*
X551Y580D01*
X536Y586D01*
X504D01*
X489Y580D01*
X489Y579D01*
X469D01*
X468Y584D01*
X470Y585D01*
X477Y601D01*
X485D01*
Y595D01*
X555D01*
Y635D01*
X520D01*
X509Y646D01*
Y708D01*
X505Y717D01*
X496Y726D01*
Y756D01*
D02*
G37*
%LPD*%
D10*
X1040Y554D02*
D03*
Y475D02*
D03*
Y396D02*
D03*
Y554D02*
D03*
D11*
X1237Y640D02*
D03*
Y310D02*
D03*
D12*
X585Y805D02*
D03*
X635D02*
D03*
D13*
X607Y170D02*
D03*
D14*
X450Y124D02*
D03*
Y215D02*
D03*
D15*
X740Y465D02*
D03*
Y515D02*
D03*
Y565D02*
D03*
Y615D02*
D03*
X520Y465D02*
D03*
Y515D02*
D03*
Y565D02*
D03*
D16*
Y615D02*
D03*
D17*
X313Y730D02*
D03*
X257D02*
D03*
X473D02*
D03*
X417D02*
D03*
X722Y330D02*
D03*
X778D02*
D03*
X313Y810D02*
D03*
X257D02*
D03*
X338Y230D02*
D03*
X282D02*
D03*
X338Y150D02*
D03*
X282D02*
D03*
D18*
X880Y562D02*
D03*
Y618D02*
D03*
X390Y578D02*
D03*
Y522D02*
D03*
X885Y422D02*
D03*
Y478D02*
D03*
D19*
X643Y335D02*
D03*
X537D02*
D03*
X693Y720D02*
D03*
X587D02*
D03*
D20*
X190Y365D02*
X245Y310D01*
X396Y316D02*
X405Y325D01*
X396Y183D02*
Y316D01*
Y183D02*
X450Y129D01*
Y124D02*
Y129D01*
X420Y397D02*
Y430D01*
X405Y325D02*
Y350D01*
X520Y465D01*
X420Y430D02*
X505Y515D01*
X535Y300D02*
Y325D01*
X450Y215D02*
X535Y300D01*
X617Y180D02*
X710D01*
X335Y850D02*
X590D01*
X635Y805D01*
X805Y420D02*
X885D01*
X585Y495D02*
Y805D01*
X495Y640D02*
Y708D01*
Y640D02*
X520Y615D01*
X737Y565D02*
X740D01*
Y515D02*
X744D01*
X805Y454D01*
X500Y465D02*
X520D01*
X880Y478D02*
Y560D01*
X555Y465D02*
X585Y495D01*
X520Y465D02*
X555D01*
X335Y850D02*
X390Y795D01*
X450Y615D02*
X520D01*
X735Y400D02*
Y460D01*
X740Y465D01*
X1140Y500D02*
Y590D01*
X1065Y500D02*
X1140D01*
X1040Y475D02*
X1065Y500D01*
X996Y510D02*
X1040Y554D01*
X975Y510D02*
X996D01*
X925Y460D02*
X975Y510D01*
X925Y360D02*
Y460D01*
X910Y345D02*
X925Y360D01*
X710Y180D02*
Y252D01*
X1025Y300D02*
Y381D01*
X1040Y396D01*
X825Y570D02*
X832D01*
X880Y618D01*
X740Y615D02*
X790D01*
X840Y665D01*
X925D01*
X1000Y590D01*
X1140D01*
X643Y471D02*
X737Y565D01*
X643Y335D02*
Y471D01*
X805Y420D02*
Y454D01*
Y357D02*
Y420D01*
X778Y330D02*
X805Y357D01*
X648Y330D02*
X722D01*
X844Y345D02*
X910D01*
X799Y299D02*
X844Y345D01*
X757Y299D02*
X799D01*
X710Y252D02*
X757Y299D01*
X349Y139D02*
X363Y124D01*
X450D01*
X282Y150D02*
X338Y205D01*
Y230D01*
X340Y235D02*
Y317D01*
X420Y397D01*
X282Y230D02*
Y273D01*
X245Y310D02*
X282Y273D01*
X255Y530D02*
Y820D01*
Y530D02*
X280D01*
X230Y850D02*
X335D01*
X190Y810D02*
X230Y850D01*
X190Y365D02*
Y810D01*
X328Y795D02*
X390D01*
X313Y810D02*
X328Y795D01*
X313Y600D02*
Y730D01*
Y600D02*
X390Y522D01*
X403Y565D02*
X520D01*
X390Y578D02*
X403Y565D01*
X390Y703D02*
X417Y730D01*
X390Y578D02*
Y703D01*
X473Y730D02*
X495Y708D01*
X635Y805D02*
X693Y747D01*
Y720D02*
Y747D01*
Y720D02*
X740Y673D01*
Y615D02*
Y673D01*
D21*
X257Y475D02*
D03*
D22*
X405Y325D02*
D03*
X1025Y300D02*
D03*
X245Y310D02*
D03*
X390Y795D02*
D03*
X445Y610D02*
D03*
X825Y570D02*
D03*
X735Y400D02*
D03*
X420Y430D02*
D03*
D23*
X782Y218D02*
D03*
X908D02*
D03*
X845Y244D02*
D03*
X756Y155D02*
D03*
X782Y92D02*
D03*
X845Y66D02*
D03*
X908Y92D02*
D03*
X934Y155D02*
D03*
Y800D02*
D03*
X908Y737D02*
D03*
X845Y711D02*
D03*
X782Y737D02*
D03*
X756Y800D02*
D03*
X845Y889D02*
D03*
X908Y863D02*
D03*
X782D02*
D03*
D24*
X845Y155D02*
D03*
Y800D02*
D03*
M02*
